<svg width="296" height="622" viewBox="0 0 296 622" fill="none" xmlns="http://www.w3.org/2000/svg">
<path fill-rule="evenodd" clip-rule="evenodd" d="M157.751 134.4C210.914 95.4976 280.945 152.478 344.606 169.42C406.132 185.793 480.153 179.043 517.973 230.26C557.495 283.782 558.056 361.045 530.981 421.819C506.882 475.916 442.613 491.355 389.758 518.067C343.28 541.558 297.731 577.438 247.087 565.3C196.268 553.12 162.982 505.667 140.73 458.383C120.859 416.157 131.039 370.507 133.487 323.904C136.961 257.792 104.324 173.495 157.751 134.4Z" fill="#EEFAFF"/>
<path d="M192.987 291.28H185.764C185.532 291.28 185.309 291.195 185.137 291.04C184.965 290.885 184.858 290.671 184.836 290.441L183.391 275.679H195.36L193.915 290.441C193.893 290.671 193.786 290.885 193.614 291.04C193.442 291.195 193.219 291.28 192.987 291.28Z" fill="#FED253"/>
<path d="M195.342 277.537H183.411C183.164 277.536 182.927 277.438 182.752 277.264C182.577 277.09 182.479 276.854 182.479 276.608V274.38C182.479 274.133 182.577 273.897 182.752 273.723C182.927 273.549 183.164 273.451 183.411 273.451H195.342C195.589 273.451 195.826 273.549 196.001 273.723C196.176 273.897 196.274 274.133 196.274 274.38V276.608C196.274 276.854 196.176 277.09 196.001 277.264C195.826 277.438 195.589 277.536 195.342 277.537Z" fill="#CCCCCC"/>
<path d="M263.948 377.971C258.7 371.017 254.552 363.305 251.646 355.101C251.478 354.61 251.49 354.076 251.68 353.593C251.87 353.11 252.226 352.71 252.685 352.464L270.642 342.879C270.933 342.723 271.255 342.635 271.585 342.621C271.915 342.608 272.244 342.67 272.546 342.802C272.854 342.935 273.127 343.137 273.345 343.391C273.563 343.645 273.72 343.946 273.803 344.27C275.894 352.176 279.822 359.48 285.272 365.592C285.497 365.841 285.661 366.138 285.753 366.459C285.845 366.781 285.862 367.119 285.803 367.449C285.746 367.772 285.615 368.079 285.422 368.345C285.228 368.612 284.975 368.83 284.684 368.985L266.726 378.57C266.267 378.814 265.736 378.888 265.227 378.778C264.718 378.668 264.265 378.382 263.948 377.971Z" fill="#CCCCCC"/>
<path d="M265.173 377.054C265.27 377.174 265.406 377.256 265.557 377.288C265.708 377.319 265.866 377.296 266.002 377.224L283.96 367.639C284.047 367.593 284.123 367.529 284.18 367.449C284.238 367.37 284.277 367.279 284.293 367.182C284.312 367.08 284.307 366.975 284.278 366.876C284.249 366.776 284.198 366.684 284.127 366.608C278.517 360.315 274.472 352.796 272.321 344.657C272.296 344.557 272.248 344.463 272.181 344.384C272.114 344.305 272.029 344.243 271.933 344.202C271.843 344.161 271.745 344.143 271.647 344.147C271.549 344.151 271.452 344.178 271.366 344.225L253.409 353.81C253.273 353.883 253.166 354.002 253.109 354.145C253.051 354.287 253.045 354.446 253.092 354.593C255.945 362.65 260.019 370.224 265.173 377.054V377.054Z" fill="white"/>
<path d="M271.82 356.558L262.04 360.859C261.668 361.022 261.246 361.031 260.867 360.885C260.488 360.739 260.183 360.449 260.018 360.079L259.777 359.533C259.613 359.162 259.603 358.742 259.75 358.364C259.897 357.987 260.188 357.683 260.56 357.519L270.34 353.218C270.712 353.055 271.134 353.046 271.513 353.192C271.892 353.338 272.197 353.628 272.362 353.998L272.604 354.544C272.767 354.915 272.777 355.335 272.63 355.713C272.483 356.09 272.192 356.394 271.82 356.558Z" fill="#CCCCCC"/>
<path d="M275.397 363.175L265.617 367.476C265.245 367.639 264.823 367.649 264.444 367.502C264.065 367.356 263.76 367.066 263.596 366.696L263.354 366.15C263.19 365.779 263.18 365.359 263.327 364.982C263.474 364.604 263.765 364.3 264.137 364.136L273.917 359.835C274.289 359.672 274.711 359.663 275.09 359.809C275.469 359.955 275.774 360.245 275.939 360.616L276.181 361.162C276.344 361.532 276.354 361.952 276.207 362.33C276.06 362.707 275.769 363.011 275.397 363.175Z" fill="#CCCCCC"/>
<path d="M252.459 357.661C251.784 357.229 251.212 356.654 250.784 355.978C250.357 355.302 250.083 354.54 249.982 353.747C249.882 352.954 249.957 352.149 250.203 351.388C250.449 350.627 250.859 349.929 251.405 349.343L247.28 291.032L259.162 292.18L259.488 349.284C260.415 350.263 260.95 351.546 260.991 352.891C261.031 354.237 260.575 355.55 259.709 356.583C258.842 357.616 257.626 358.296 256.289 358.495C254.953 358.693 253.59 358.397 252.459 357.661L252.459 357.661Z" fill="#A0616A"/>
<path d="M249.971 310.626C249.692 310.426 249.463 310.167 249.298 309.868C249.134 309.568 249.039 309.236 249.021 308.895L248.15 293.179C248.064 291.622 248.56 290.088 249.541 288.873C250.523 287.659 251.922 286.849 253.467 286.601C255.012 286.352 256.595 286.683 257.911 287.528C259.226 288.374 260.181 289.675 260.59 291.18L264.414 305.231C264.573 305.817 264.492 306.442 264.189 306.969C263.886 307.496 263.385 307.881 262.797 308.041L251.918 310.979C251.588 311.069 251.241 311.084 250.904 311.023C250.567 310.962 250.248 310.826 249.971 310.626Z" fill="#3F3D56"/>
<path d="M229.72 429.348H223.455L220.476 405.279H229.721L229.72 429.348Z" fill="#A0616A"/>
<path d="M218.982 427.565H231.063V435.143H211.375C211.375 434.148 211.572 433.162 211.954 432.243C212.336 431.324 212.897 430.488 213.603 429.785C214.309 429.081 215.148 428.523 216.071 428.142C216.994 427.761 217.983 427.565 218.982 427.565Z" fill="#272A3D"/>
<path d="M253.224 429.348H246.959L243.979 405.279H253.225L253.224 429.348Z" fill="#A0616A"/>
<path d="M242.485 427.565H254.566V435.143H234.879C234.879 434.148 235.076 433.162 235.458 432.243C235.84 431.324 236.4 430.488 237.107 429.785C237.813 429.081 238.652 428.523 239.575 428.142C240.497 427.761 241.487 427.565 242.485 427.565Z" fill="#272A3D"/>
<path d="M229.424 417.223L222.528 416.895C221.941 416.867 221.386 416.616 220.979 416.194C220.572 415.771 220.342 415.209 220.338 414.623C218.52 386.669 216.002 356.695 219.857 345.116C219.855 344.786 219.924 344.459 220.06 344.158C220.196 343.857 220.396 343.59 220.646 343.373C220.895 343.156 221.189 342.995 221.507 342.902C221.825 342.809 222.159 342.785 222.487 342.833L250.075 346.822C250.62 346.898 251.119 347.167 251.481 347.581C251.843 347.994 252.043 348.523 252.044 349.072C255.566 362.783 255.725 387.645 255.592 413.478C255.594 413.78 255.537 414.08 255.422 414.36C255.308 414.64 255.139 414.894 254.925 415.109C254.711 415.323 254.457 415.494 254.177 415.61C253.897 415.726 253.596 415.786 253.293 415.786H245.859C245.31 415.788 244.779 415.594 244.362 415.239C243.945 414.884 243.67 414.392 243.587 413.851L239 384.804C238.933 384.379 238.714 383.992 238.383 383.716C238.053 383.439 237.632 383.291 237.201 383.299C236.769 383.307 236.355 383.47 236.034 383.759C235.714 384.048 235.509 384.442 235.458 384.869L231.817 415.207C231.748 415.763 231.478 416.274 231.058 416.646C230.638 417.018 230.095 417.224 229.533 417.226C229.497 417.226 229.461 417.225 229.424 417.223Z" fill="#272A3D"/>
<path d="M234.278 349.075C228.198 345.71 223.448 344.825 221.157 344.598C220.853 344.568 220.558 344.478 220.289 344.331C220.021 344.185 219.786 343.986 219.597 343.746C219.404 343.505 219.263 343.227 219.181 342.929C219.099 342.632 219.079 342.32 219.121 342.015L225.732 293.125C226.112 290.264 227.221 287.549 228.953 285.236C230.685 282.924 232.982 281.091 235.626 279.912C238.185 278.741 241.002 278.24 243.81 278.46C246.618 278.679 249.323 279.61 251.667 281.165C251.894 281.315 252.116 281.468 252.334 281.625C255.034 283.596 257.088 286.318 258.237 289.45C259.386 292.582 259.579 295.982 258.791 299.223C254.737 315.743 253.345 342.825 253.107 348.087C253.088 348.535 252.937 348.968 252.671 349.331C252.406 349.694 252.039 349.97 251.616 350.125C249.122 351.028 246.49 351.495 243.836 351.505C240.494 351.525 237.202 350.688 234.278 349.075Z" fill="#3F3D56"/>
<path d="M239.808 273.274C246.739 273.274 252.358 267.677 252.358 260.772C252.358 253.868 246.739 248.271 239.808 248.271C232.877 248.271 227.259 253.868 227.259 260.772C227.259 267.677 232.877 273.274 239.808 273.274Z" fill="#A0616A"/>
<path d="M248.689 270.663C246.347 273.148 241.999 271.814 241.694 268.42C241.671 268.157 241.672 267.891 241.7 267.628C241.857 266.125 242.729 264.76 242.52 263.173C242.473 262.778 242.325 262.401 242.091 262.079C240.225 259.59 235.846 263.192 234.085 260.939C233.005 259.558 234.275 257.383 233.446 255.839C232.353 253.801 229.114 254.806 227.083 253.69C224.823 252.448 224.958 248.994 226.446 246.893C228.26 244.331 231.441 242.964 234.582 242.767C237.723 242.57 240.842 243.416 243.775 244.554C247.107 245.848 250.411 247.636 252.462 250.554C254.955 254.104 255.195 258.876 253.948 263.026C253.189 265.551 250.6 268.635 248.689 270.663Z" fill="#2F2E41"/>
<path d="M258.627 282.818C258.408 281.789 256.522 280.384 253.824 279.239C249.488 277.49 244.798 276.785 240.136 277.183C235.475 277.581 230.974 279.07 226.999 281.53C226.722 281.545 226.457 281.65 226.246 281.829C226.034 282.008 225.888 282.252 225.829 282.522L216.754 322.505L215.574 327.712L214.792 331.158L213.612 336.349L212.984 339.124C212.943 339.301 212.942 339.485 212.979 339.663C213.015 339.841 213.09 340.009 213.198 340.156C213.305 340.303 213.443 340.425 213.601 340.515C213.76 340.605 213.936 340.66 214.118 340.676L253.303 344.046C253.339 344.046 253.38 344.051 253.416 344.051C253.739 344.049 254.049 343.925 254.285 343.704C254.52 343.483 254.662 343.181 254.683 342.86L255.056 337.205L255.454 331.158L255.628 328.536L256.021 322.505L258.632 282.884V282.848L258.627 282.818Z" fill="#00B7FF"/>
<path d="M194.331 285.335C194.394 285.609 194.435 285.888 194.453 286.169L216.403 298.783L221.738 295.724L227.425 303.141L216.012 311.245L190.971 291.565C189.95 291.942 188.838 292 187.783 291.731C186.727 291.463 185.779 290.881 185.064 290.062C184.35 289.244 183.902 288.228 183.78 287.15C183.659 286.072 183.87 284.983 184.386 284.027C184.901 283.071 185.696 282.294 186.665 281.8C187.635 281.305 188.732 281.117 189.812 281.259C190.891 281.401 191.902 281.867 192.709 282.595C193.517 283.323 194.082 284.278 194.331 285.335H194.331Z" fill="#A0616A"/>
<path d="M217.187 297.711C217.15 297.371 217.191 297.028 217.305 296.706C217.419 296.384 217.605 296.092 217.848 295.851L229.019 284.72C230.126 283.617 231.603 282.962 233.166 282.88C234.73 282.798 236.268 283.296 237.485 284.277C238.701 285.258 239.51 286.653 239.756 288.194C240.001 289.734 239.665 291.31 238.813 292.618L230.857 304.83C230.525 305.339 230.003 305.696 229.407 305.822C228.811 305.949 228.189 305.834 227.677 305.504L218.222 299.392C217.934 299.207 217.692 298.96 217.513 298.669C217.334 298.378 217.222 298.05 217.187 297.711Z" fill="#3F3D56"/>
<path d="M256.022 322.505L255.628 328.536L215.574 327.712L216.755 322.505H256.022Z" fill="#CCCCCC"/>
<path d="M255.454 331.157L255.055 337.204L213.611 336.349L214.792 331.157H255.454Z" fill="#CCCCCC"/>
<path d="M240.053 236.483C235.806 236.484 231.726 238.131 228.676 241.076C225.627 244.021 223.848 248.033 223.716 252.262H220.637C220.366 252.262 220.106 252.37 219.915 252.56C219.723 252.751 219.615 253.01 219.615 253.28V257.352C219.615 257.622 219.723 257.881 219.915 258.072C220.106 258.263 220.366 258.37 220.637 258.37H255.382C255.653 258.37 255.913 258.263 256.105 258.072C256.296 257.881 256.404 257.622 256.404 257.352V252.771C256.404 250.632 255.981 248.514 255.16 246.538C254.338 244.562 253.133 242.766 251.615 241.254C250.097 239.741 248.294 238.542 246.311 237.723C244.327 236.904 242.201 236.483 240.053 236.483Z" fill="#00B7FF"/>
<path d="M526.312 436.018H162.511C162.375 436.018 162.245 435.965 162.15 435.869C162.054 435.774 162 435.644 162 435.509C162 435.374 162.054 435.245 162.15 435.149C162.245 435.054 162.375 435 162.511 435H526.312C526.447 435 526.577 435.054 526.673 435.149C526.769 435.245 526.823 435.374 526.823 435.509C526.823 435.644 526.769 435.774 526.673 435.869C526.577 435.965 526.447 436.018 526.312 436.018Z" fill="#CCCCCC"/>
</svg>
