<svg width="617" height="318" viewBox="0 0 617 318" fill="none" xmlns="http://www.w3.org/2000/svg">
<g clip-path="url(#clip0_38_25)">
<path d="M448.72 196.196C448.331 196.214 447.946 196.112 447.617 195.904C447.289 195.696 447.032 195.392 446.882 195.033C446.732 194.674 446.695 194.278 446.778 193.898C446.861 193.518 447.059 193.173 447.344 192.908L447.474 192.392C447.457 192.35 447.44 192.309 447.423 192.268C447.031 191.343 446.375 190.555 445.536 190.002C444.698 189.449 443.715 189.156 442.71 189.16C441.706 189.164 440.725 189.464 439.891 190.023C439.056 190.582 438.406 191.375 438.021 192.303C436.484 196.004 434.526 199.712 434.044 203.625C433.832 205.355 433.921 207.109 434.308 208.808C430.697 200.934 428.822 192.376 428.81 183.715C428.809 181.541 428.93 179.369 429.171 177.209C429.371 175.438 429.649 173.68 430.003 171.935C431.939 162.463 436.095 153.586 442.13 146.032C445.051 144.439 447.413 141.989 448.899 139.013C449.437 137.944 449.817 136.802 450.028 135.623C449.698 135.666 448.785 130.651 449.034 130.343C448.574 129.647 447.753 129.3 447.251 128.621C444.757 125.241 441.321 125.831 439.527 130.424C435.694 132.357 435.657 135.563 438.009 138.646C439.505 140.608 439.71 143.262 441.023 145.362C440.888 145.535 440.747 145.702 440.612 145.875C438.144 149.048 435.992 152.454 434.188 156.046C434.627 152.022 434.104 147.952 432.661 144.169C431.199 140.644 428.458 137.675 426.045 134.628C423.147 130.967 417.202 132.565 416.692 137.205C416.687 137.25 416.682 137.295 416.677 137.34C417.036 137.542 417.387 137.756 417.73 137.983C418.161 138.271 418.495 138.683 418.689 139.164C418.882 139.645 418.925 140.173 418.813 140.679C418.701 141.185 418.438 141.646 418.06 142C417.681 142.355 417.205 142.587 416.692 142.666L416.639 142.674C416.767 143.965 416.993 145.244 417.315 146.501C414.219 158.467 420.903 162.826 430.446 163.021C430.657 163.129 430.862 163.237 431.073 163.34C429.261 168.473 428.124 173.819 427.691 179.245C427.446 182.446 427.461 185.661 427.735 188.86L427.718 188.746C427.027 185.189 425.128 181.98 422.344 179.66C418.208 176.264 412.364 175.014 407.902 172.284C407.428 171.98 406.876 171.818 406.313 171.816C405.749 171.815 405.197 171.975 404.721 172.277C404.245 172.579 403.866 173.01 403.628 173.521C403.389 174.031 403.302 174.599 403.376 175.157C403.382 175.197 403.388 175.237 403.394 175.277C404.06 175.547 404.707 175.859 405.334 176.21C405.692 176.413 406.043 176.627 406.386 176.854C406.818 177.142 407.152 177.553 407.345 178.035C407.538 178.516 407.582 179.044 407.47 179.55C407.357 180.056 407.095 180.517 406.716 180.871C406.338 181.225 405.861 181.457 405.348 181.536L405.296 181.544C405.258 181.55 405.226 181.555 405.188 181.561C406.324 184.273 407.92 186.769 409.903 188.941C411.839 199.387 420.154 200.378 429.047 197.336H429.053C430.028 201.574 431.442 205.699 433.271 209.645H448.342C448.396 209.477 448.445 209.305 448.493 209.137C447.099 209.225 445.698 209.141 444.323 208.889C445.441 207.518 446.56 206.136 447.678 204.764C447.703 204.739 447.726 204.712 447.748 204.683C448.315 203.981 448.888 203.285 449.455 202.583L449.455 202.582C449.486 200.431 449.239 198.285 448.72 196.197L448.72 196.196Z" fill="#6D6996"/>
<path d="M493.855 235.227H376.394C368.393 235.227 360.72 238.404 355.062 244.058C349.404 249.713 346.226 257.382 346.226 265.379V315.631H355.69V287.902C355.69 279.905 358.869 272.236 364.526 266.581C370.184 260.927 377.858 257.75 385.859 257.75H484.39C492.392 257.75 500.065 260.927 505.723 266.581C511.381 272.236 514.559 279.905 514.559 287.902V315.631H524.024V265.379C524.024 257.382 520.845 249.713 515.187 244.058C509.53 238.404 501.856 235.227 493.855 235.227Z" fill="#6D6996"/>
<path d="M435.8 248.065C452.788 248.065 466.56 246.099 466.56 243.673C466.56 241.248 452.788 239.281 435.8 239.281C418.812 239.281 405.04 241.248 405.04 243.673C405.04 246.099 418.812 248.065 435.8 248.065Z" fill="#55527E"/>
<path d="M459.053 244.774H418.082C407.968 235.086 400.737 225.75 406.527 218C406.527 215.772 407.412 213.636 408.988 212.061C410.564 210.486 412.702 209.601 414.931 209.601H462.205C464.434 209.601 466.571 210.486 468.148 212.061C469.724 213.636 470.609 215.772 470.609 218C472.813 226.831 468.875 235.757 459.053 244.774Z" fill="#FED253"/>
<path d="M323.211 100.05C274.328 72.3342 293.032 0.964558 239.334 23.7003C169.606 7.10443 209.24 76.4245 147.345 100.05C144.51 100.05 141.703 100.608 139.085 101.692C136.466 102.776 134.086 104.365 132.082 106.369C130.078 108.372 128.488 110.75 127.403 113.367C126.318 115.985 125.76 118.79 125.76 121.623V121.623C125.76 124.52 126.344 127.387 127.476 130.053C128.609 132.72 130.267 135.131 132.353 137.143C134.438 139.155 136.907 140.727 139.613 141.764C142.319 142.802 145.207 143.284 148.103 143.183L156.181 142.899V210.858H314.374V142.899L322.453 143.183C325.349 143.284 328.237 142.802 330.943 141.764C333.649 140.727 336.118 139.155 338.203 137.143C340.289 135.131 341.947 132.72 343.08 130.053C344.212 127.387 344.796 124.52 344.796 121.623V121.623C344.796 118.79 344.238 115.985 343.153 113.367C342.068 110.75 340.478 108.372 338.474 106.369C336.47 104.365 334.09 102.776 331.471 101.692C328.853 100.608 326.046 100.05 323.211 100.05Z" fill="#55527E"/>
<path d="M308.12 242.615H160.408C158.749 242.615 157.158 243.273 155.985 244.446C154.812 245.618 154.153 247.208 154.153 248.866V257.985C154.153 259.643 154.812 261.233 155.985 262.405C157.158 263.577 158.749 264.236 160.408 264.236H171.73V316.937H179.843V264.236H285.305V316.937H293.417V264.236H308.12C309.779 264.236 311.37 263.577 312.542 262.405C313.715 261.233 314.374 259.643 314.374 257.985V248.866C314.374 247.208 313.715 245.618 312.542 244.446C311.37 243.273 309.779 242.615 308.12 242.615Z" fill="#55527E"/>
<path d="M338.541 227.75H334.013C335.322 225.492 336.01 222.928 336.008 220.318V133.833C336.008 129.891 334.441 126.11 331.651 123.322C328.862 120.535 325.079 118.969 321.135 118.969C317.19 118.969 313.407 120.535 310.618 123.322C307.829 126.11 306.262 129.891 306.262 133.833V205.314C194.922 189.685 267.481 189.843 166.998 205.812V133.833C166.998 129.891 165.431 126.11 162.642 123.322C159.853 120.535 156.07 118.969 152.125 118.969C148.181 118.969 144.398 120.535 141.608 123.322C138.819 126.11 137.252 129.891 137.252 133.833V220.318C137.249 222.928 137.938 225.492 139.247 227.75H129.986C128.327 227.75 126.736 228.409 125.563 229.581C124.39 230.753 123.731 232.343 123.731 234.001V243.12C123.731 244.778 124.39 246.368 125.563 247.54C126.736 248.713 128.327 249.371 129.986 249.371H338.541C340.2 249.371 341.791 248.713 342.964 247.54C344.137 246.368 344.796 244.778 344.796 243.12V234.001C344.796 232.343 344.137 230.753 342.964 229.581C341.791 228.409 340.2 227.75 338.541 227.75Z" fill="#6D6996"/>
<path d="M128.496 139.424C131.124 139.664 133.741 138.869 135.791 137.21C137.841 135.55 139.162 133.156 139.473 130.538C139.528 130.005 139.539 129.468 139.505 128.933L201.438 98.3088L186.392 80.3403L128.281 119.943C126.073 120.255 124.029 121.288 122.47 122.883C120.911 124.477 119.924 126.542 119.663 128.756C119.387 131.303 120.135 133.856 121.742 135.852C123.349 137.848 125.684 139.124 128.232 139.399C128.32 139.409 128.408 139.417 128.496 139.424Z" fill="#FFB6B6"/>
<path d="M264.586 83.8485C264.586 83.8485 270.601 71.9216 251.821 67.5938C233.042 63.2659 198.371 77.8392 196.606 79.5038C194.842 81.1684 197.134 78.9074 191.555 78.0405C188.876 77.6242 183.528 73.0942 182.43 76.9061C181.332 80.718 181.635 85.2958 178.422 81.5901C175.208 77.8844 187.871 113.274 187.871 113.274C187.871 113.274 189.505 113.012 195.297 109.942C198.551 108.219 198.585 101.061 200.762 103.063C202.938 105.065 222.29 104.725 223.378 104.461C224.465 104.197 229.342 95.2245 229.342 95.2245L264.586 83.8485Z" fill="#272A3D"/>
<path d="M163.947 305.796L153.637 303.647L157.019 262.879L172.237 266.049L163.947 305.796Z" fill="#FFB6B6"/>
<path d="M162.069 316.622L130.362 310.017L130.446 309.616C131.128 306.345 133.082 303.479 135.879 301.648C138.676 299.817 142.086 299.171 145.359 299.852L145.359 299.853L152.067 296.667L161.957 303.31L164.724 303.887L162.069 316.622Z" fill="#272A3D"/>
<path d="M341.47 258.542L351.732 256.173L347.473 215.486L332.328 218.982L341.47 258.542Z" fill="#FFB6B6"/>
<path d="M343.581 269.325L375.138 262.041L375.046 261.642C374.294 258.386 372.278 255.563 369.443 253.792C366.607 252.022 363.185 251.449 359.927 252.201L359.926 252.201L353.152 249.161L343.407 256.014L340.652 256.65L343.581 269.325Z" fill="#2F2E41"/>
<path d="M220.405 164.914L218.635 184.924C218.635 184.924 161.16 166.476 160.461 209.871C160.238 223.696 154.153 277.073 154.153 277.073L171.73 279.776C171.73 279.776 181.195 265.587 181.195 260.857C181.195 256.128 190.659 221.669 190.659 221.669L239.988 216.82C292.065 213.561 308.29 212.21 319.783 175.049C319.783 175.049 326.79 224.768 330.723 228.624C334.656 232.48 337.567 228.647 332.731 233.604C327.895 238.561 324.515 236.534 327.895 238.561C331.275 240.588 351.557 237.209 351.557 237.209C356.086 237.717 350.278 165.269 335.098 143.888C321.553 124.81 274.819 184.763 274.819 184.763L220.405 164.914Z" fill="#272A3D"/>
<path d="M281.305 79.7923C281.305 79.7923 298.873 77.7994 302.615 86.2141C306.357 94.6289 315.788 112.151 315.788 112.151C315.788 112.151 310.951 114.209 315.89 108.86C318.103 106.463 314.019 107.925 316.826 106.99C319.632 106.055 320.568 106.99 320.568 106.99L329.923 122.885C329.923 122.885 329.17 126.507 324.31 126.625C319.449 126.743 327.116 121.95 320.568 128.495C317.186 131.874 304.909 136.536 304.909 136.536L273.526 107.711L281.305 79.7923Z" fill="#272A3D"/>
<path d="M225.905 71.255L243.661 66.6563L251.95 55.231L271.634 57.6494L275.824 73.2338L289.837 81.3635C289.837 81.3635 282.092 163.241 283.934 167.737C285.777 172.232 281.306 175.993 275.664 181.789C270.023 187.584 280.352 181.118 281.661 187.427C282.97 193.737 292.513 200.414 281.661 200.348C270.809 200.282 211.115 203.293 212.986 195.813C214.857 188.334 209.037 186.286 211.858 181.597C214.679 176.907 216.578 179.528 215.628 172.608C214.679 165.687 215.614 161.013 215.614 157.273C215.614 153.533 218.749 119.548 218.749 119.548L225.905 71.255Z" fill="#00B7FF"/>
<path d="M289.697 200.488C293.084 206.528 274.009 208.304 253.344 207.491C252.944 205.962 252.283 204.513 251.388 203.209C249.106 199.899 251.866 177.506 248.535 175.244C250.041 178.89 243.951 203.125 242.679 206.855C223.988 205.359 206.952 201.965 207.158 197.926C207.214 196.748 211.115 174.309 213.005 172.607C214.885 170.905 212.986 138.78 213.005 131.889C213.014 124.989 223.277 74.2664 223.277 72.3965C223.277 70.5265 247.6 61.1768 247.6 61.1768L257.89 120.08L273.532 64.6923C275.061 66.7705 276.829 68.6627 278.798 70.3301C281.932 72.9387 294.375 83.6162 294.375 83.6162L283.719 162.416C283.719 162.416 288.762 174.309 288.5 179.03C288.398 182.777 287.661 186.479 286.32 189.979C284.804 194.42 284.963 192.036 289.697 200.488Z" fill="#272A3D"/>
<path d="M306.433 37.6651C308.383 39.4417 309.561 41.9085 309.719 44.5406C309.876 47.1726 309 49.7621 307.276 51.7581C306.919 52.1583 306.53 52.5283 306.112 52.8643L325.275 119.215L301.854 120.237L291.9 50.6485C290.64 48.8089 290.025 46.6042 290.151 44.3784C290.276 42.1527 291.136 40.0311 292.595 38.3448C293.434 37.3932 294.453 36.6162 295.593 36.0581C296.733 35.5 297.971 35.1717 299.238 35.0921C300.505 35.0124 301.775 35.1829 302.976 35.5938C304.176 36.0047 305.285 36.648 306.237 37.4869C306.303 37.5454 306.369 37.6048 306.433 37.6651Z" fill="#FFB6B6"/>
<path d="M298.165 114.575C298.913 113.98 322.221 106.417 322.221 106.417C322.221 106.417 332.12 121.136 326.138 125.899C320.156 130.662 307.088 131.904 307.088 131.904C307.088 131.904 301.598 128.817 301.727 125.178C301.856 121.539 298.165 114.575 298.165 114.575Z" fill="#272A3D"/>
<path d="M283.743 46.3745L286.277 27.7261C286.628 25.1402 288.396 23.4422 290.217 23.9411L294.746 25.1818C296.567 25.6807 297.763 28.1904 297.412 30.7763L294.878 49.4247C294.527 52.0105 292.759 53.7086 290.938 53.2097L286.409 51.969C284.587 51.4701 283.392 48.9604 283.743 46.3745Z" fill="#3F3D56"/>
<path d="M284.998 45.2914L287.581 28.2327C287.939 25.8673 289.227 24.3659 290.453 24.8861L293.501 26.1796C294.727 26.6997 295.433 29.0474 295.075 31.4128L292.492 48.4715C292.134 50.8369 290.846 52.3382 289.62 51.8181L286.572 50.5246C285.346 50.0045 284.64 47.6568 284.998 45.2914Z" fill="#00B7FF"/>
<path d="M236.822 27.5729C238.583 41.7732 248.429 53.4816 262.745 53.4816C266.15 53.4816 269.521 52.8114 272.666 51.5094C275.811 50.2073 278.669 48.2989 281.076 45.8931C283.483 43.4872 285.393 40.6311 286.695 37.4877C287.998 34.3443 288.669 30.9752 288.669 27.5729C288.669 13.2639 277.001 2.98711 262.745 1.66418C247.619 0.260467 234.561 9.34143 236.822 27.5729Z" fill="#272A3D"/>
<path d="M265.611 55.0198C278.306 55.0198 288.598 44.7336 288.598 32.045C288.598 19.3564 278.306 9.07031 265.611 9.07031C252.915 9.07031 242.623 19.3564 242.623 32.045C242.623 44.7336 252.915 55.0198 265.611 55.0198Z" fill="#FFB6B6"/>
<path d="M241.808 34.5483C242.536 39.5407 246.793 46.5061 245.796 46.5061C244.799 46.5061 237.71 25.9253 244.799 24.5834C249.941 23.61 251.09 24.4638 255.896 22.3811L255.218 23.0189C258.399 25.3307 262.826 23.9058 266.455 22.4011C270.094 20.9063 274.511 19.4814 277.702 21.7833C279.706 23.2282 280.553 25.7393 281.799 27.8718C283.046 30.0142 285.349 32.0371 287.722 31.3794C289.626 30.8513 290.723 28.7188 290.713 26.7457C290.703 24.7727 288.132 22.8958 288.998 21.1255C291.564 15.8796 289.256 12.3039 283.664 9.83538C281.63 9.52647 279.596 9.21091 277.562 8.8887C278.628 7.41326 279.92 6.11515 281.391 5.04227C280.633 3.49767 279.765 1.94314 278.3 1.08618C276.675 0.119617 274.661 0.189325 272.776 0.289005C268.569 0.508203 264.364 0.727416 260.163 0.946655C257.053 1.10611 253.832 1.29546 251.051 2.72043C247.581 4.50412 245.308 7.98186 243.652 11.5194C239.943 19.4714 240.532 25.8689 241.808 34.5483Z" fill="#272A3D"/>
<path d="M3.56087e-06 316.43C-0.000311524 316.536 0.0202867 316.641 0.0606073 316.738C0.100928 316.836 0.160179 316.925 0.23495 317C0.309721 317.074 0.398531 317.134 0.496284 317.174C0.594036 317.214 0.698804 317.235 0.804543 317.234H616.196C616.409 317.234 616.614 317.15 616.764 316.999C616.915 316.848 617 316.644 617 316.43C617 316.217 616.915 316.013 616.764 315.862C616.614 315.711 616.409 315.626 616.196 315.626H0.804543C0.698804 315.626 0.594045 315.647 0.496294 315.687C0.398543 315.727 0.309721 315.786 0.23495 315.861C0.160179 315.936 0.100929 316.025 0.0606073 316.122C0.0202858 316.22 -0.000308833 316.325 3.56087e-06 316.43Z" fill="#272A3D"/>
</g>
<defs>
<clipPath id="clip0_38_25">
<rect width="617" height="317" fill="white" transform="translate(0 0.234375)"/>
</clipPath>
</defs>
</svg>
