<svg width="694" height="427" viewBox="0 0 694 427" fill="none" xmlns="http://www.w3.org/2000/svg">
<g clip-path="url(#clip0_1_131)">
<path opacity="0.1" d="M693.598 273.989C693.609 285.531 692.213 297.031 689.438 308.235C688.504 312.01 687.42 315.707 686.184 319.325C684.672 323.791 682.92 328.172 680.936 332.45C679.935 334.614 678.878 336.734 677.764 338.812C677.783 350.648 675.344 362.359 670.604 373.205C662.034 392.665 646.754 408.4 627.547 417.542C615.538 423.268 602.414 426.279 589.108 426.362H132.152C111.821 426.405 91.8416 421.067 74.2444 410.891L73.9737 410.738C71.4672 409.272 69.0235 407.72 66.6426 406.081C61.2855 402.383 56.2525 398.236 51.5978 393.686C45.2977 387.533 39.7463 380.658 35.0586 373.205C24.0489 355.734 18.2165 335.503 18.2369 314.856C7.08724 295.305 0.585693 271.884 0.585693 246.717C0.585693 214.964 10.9176 185.998 27.8922 164.071C31.4311 159.49 35.3075 155.18 39.4891 151.176C43.615 147.214 48.0496 143.586 52.751 140.327C56.5125 137.717 60.4437 135.36 64.5185 133.271C66.2189 132.407 67.9252 131.589 69.6609 130.831C71.1848 130.155 72.7264 129.525 74.2856 128.931C76.1566 128.222 78.0512 127.569 79.9693 126.973C81.8874 126.378 83.78 125.856 85.6471 125.409C88.3928 124.739 91.1857 124.194 94.0256 123.775C96.3791 123.428 98.7326 123.187 101.086 123.004C102.957 122.863 104.846 122.787 106.746 122.763H107.776C109.87 122.763 111.953 122.845 114.019 122.987C114.236 122.551 114.472 122.11 114.689 121.681C115.513 120.111 116.366 118.547 117.225 117.018C117.223 117.005 117.223 116.991 117.225 116.977C117.372 116.707 117.519 116.442 117.672 116.183C118.367 114.931 119.09 113.69 119.832 112.461C120.173 111.873 120.508 111.32 120.855 110.768C120.929 110.63 121.009 110.497 121.097 110.368C121.45 109.78 121.809 109.192 122.173 108.604C123.99 105.703 125.878 102.853 127.839 100.054L128.34 99.3366C128.646 98.9015 128.928 98.4781 129.269 98.043C130.081 96.9081 130.917 95.7674 131.758 94.6501C132.346 93.8504 132.935 93.0566 133.57 92.2981C135.1 90.338 136.669 88.378 138.277 86.4179C139.885 84.4578 141.556 82.5233 143.29 80.6142C143.526 80.3496 143.761 80.0909 144.008 79.8321L146.52 77.092C146.644 76.9626 146.75 76.845 146.868 76.7274C147.168 76.404 147.456 76.0806 147.779 75.7689C149.127 74.34 150.51 72.9406 151.898 71.547C158.965 64.5128 166.493 57.9576 174.433 51.9249C174.745 51.6779 175.062 51.4427 175.374 51.2075C176.869 50.0844 178.387 48.973 179.905 47.8793C188.254 41.893 196.983 36.4523 206.035 31.5913C206.658 31.2326 207.294 30.8974 207.935 30.5681C216.05 26.2775 224.396 22.4377 232.935 19.0665C237.589 17.2261 242.349 15.4973 247.138 13.9155C250.327 12.8689 253.528 11.8751 256.77 10.9402C261.838 9.48188 266.941 8.17452 272.08 7.01809C287.218 3.62339 302.619 1.52635 318.114 0.749839C322.821 0.510712 327.581 0.38723 332.394 0.37939C355.617 0.348664 378.75 3.27305 401.234 9.08203C401.466 9.43312 401.784 9.71935 402.158 9.91377C402.532 10.1082 402.949 10.2044 403.37 10.1934H405.347C406.206 10.4286 407.059 10.6638 407.918 10.9108C412.715 12.2906 417.444 13.7979 422.104 15.4326L423.28 15.856C434.782 19.9432 445.972 24.8562 456.765 30.5564C466.493 35.6824 475.861 41.4663 484.801 47.8676C486.178 48.8554 487.535 49.8511 488.872 50.8547C490.496 49.8159 492.148 48.8202 493.826 47.8676C500.31 44.1774 507.196 41.2436 514.349 39.1238C529.304 34.7008 545.128 34.0823 560.383 37.3244C579.947 41.47 597.657 51.7602 611.961 66.396C617.784 72.3842 622.968 78.9624 627.429 86.0239C627.752 86.5296 628.076 87.0412 628.388 87.5587C632.221 93.8086 635.516 100.373 638.237 107.181C638.337 107.434 638.437 107.669 638.526 107.916C641.037 114.291 643.063 120.846 644.586 127.526C644.656 127.867 644.739 128.202 644.809 128.543C646.233 135.008 647.201 141.565 647.704 148.165C647.704 148.401 647.704 148.642 647.751 148.889C647.998 152.303 648.124 155.753 648.128 159.238C648.128 162.354 648.022 165.447 647.828 168.517C647.828 168.852 647.781 169.199 647.751 169.546C647.698 170.434 647.622 171.31 647.545 172.204C652.039 175.826 656.245 179.791 660.125 184.064C661.839 185.934 663.498 187.874 665.102 189.885C669.989 196.006 674.284 202.576 677.929 209.507C687.879 228.277 693.598 250.357 693.598 273.989Z" fill="#00B7FF"/>
<path opacity="0.1" d="M627.111 415.366C627.111 419.382 613.267 423.145 589.108 426.379H132.152C111.821 426.423 91.8415 421.085 74.2443 410.909L73.9736 410.756C80.9165 408.227 93.4488 405.869 110.506 403.741L111.271 403.647C118.92 402.712 127.469 401.824 136.812 400.983C137.047 400.983 137.289 400.948 137.524 400.918C144.938 400.26 152.824 399.642 161.183 399.066C161.447 399.066 161.706 399.019 161.971 399.007C165.195 398.776 168.486 398.556 171.844 398.349L173.138 398.266C197.585 396.749 225.374 395.538 255.511 394.738H255.546C259.767 394.621 264.033 394.517 268.343 394.426C273.137 394.313 277.989 394.213 282.9 394.127C286.648 394.044 290.443 393.985 294.25 393.927H294.338C311.512 393.668 329.258 393.539 347.403 393.539C392.273 393.539 434.683 394.356 472.262 395.826H472.368C478.146 396.049 483.818 396.296 489.349 396.549L494.056 396.773C500.297 397.071 506.376 397.39 512.296 397.731C581.9 401.688 627.111 408.115 627.111 415.366Z" fill="#00B7FF"/>
<g opacity="0.2">
<path d="M400.857 390.839C400.838 391.474 400.765 392.105 400.639 392.727C396.544 392.076 392.425 391.488 388.283 390.963C388.283 390.798 388.283 390.628 388.283 390.457C388.322 388.694 388.829 386.973 389.754 385.471C390.966 383.554 392.808 382.354 394.838 382.419C396.868 382.484 398.627 383.795 399.715 385.777C400.539 387.333 400.933 389.08 400.857 390.839Z" fill="#3F3D56"/>
<path d="M401.195 380.792C401.339 376.244 398.638 372.469 395.163 372.359C391.688 372.249 388.754 375.847 388.61 380.394C388.466 384.942 391.167 388.717 394.642 388.827C398.118 388.937 401.051 385.339 401.195 380.792Z" fill="#3F3D56"/>
<path d="M401.516 370.724C401.66 366.177 398.959 362.401 395.484 362.292C392.009 362.182 389.075 365.779 388.931 370.327C388.787 374.874 391.488 378.65 394.963 378.76C398.439 378.869 401.372 375.272 401.516 370.724Z" fill="#3F3D56"/>
<path d="M401.832 360.657C401.975 356.11 399.275 352.334 395.8 352.224C392.324 352.115 389.39 355.712 389.247 360.26C389.103 364.807 391.804 368.583 395.279 368.692C398.754 368.802 401.688 365.205 401.832 360.657Z" fill="#3F3D56"/>
<path d="M402.146 350.59C402.29 346.043 399.589 342.267 396.114 342.157C392.639 342.048 389.705 345.645 389.561 350.193C389.417 354.74 392.118 358.516 395.593 358.625C399.068 358.735 402.002 355.138 402.146 350.59Z" fill="#3F3D56"/>
<path d="M374.439 280.739C373.61 279.618 372.863 278.439 372.203 277.211L388.831 275.018L370.932 274.589C369.335 270.803 368.527 266.73 368.559 262.622C368.59 258.513 369.46 254.453 371.115 250.692L394.72 263.893L373.098 246.934C375.279 243.409 378.164 240.37 381.573 238.009C384.982 235.647 388.842 234.014 392.911 233.21C396.98 232.407 401.172 232.45 405.223 233.338C409.275 234.226 413.1 235.939 416.459 238.371C419.818 240.802 422.64 243.9 424.747 247.471C426.855 251.041 428.203 255.007 428.708 259.122C429.213 263.236 428.863 267.411 427.681 271.384C426.5 275.357 424.51 279.045 421.839 282.215C423.127 283.959 424.222 285.838 425.104 287.819L403.281 298.286L426.422 291.33C427.879 296.135 428.114 301.228 427.105 306.147C426.096 311.066 423.876 315.656 420.644 319.501C424.004 324.057 426.013 329.466 426.442 335.109C426.87 340.752 425.702 346.401 423.069 351.412C420.436 356.422 416.445 360.591 411.553 363.441C406.661 366.291 401.066 367.709 395.406 367.53C389.746 367.352 384.25 365.585 379.548 362.433C374.845 359.28 371.125 354.868 368.814 349.702C366.502 344.536 365.691 338.824 366.475 333.219C367.258 327.614 369.604 322.343 373.245 318.008C369.231 312.564 367.165 305.929 367.378 299.17C367.591 292.411 370.072 285.92 374.421 280.739H374.439Z" fill="#00B7FF"/>
<path opacity="0.1" d="M427.705 301.073C427.499 307.836 425.01 314.331 420.644 319.502C424.004 324.057 426.013 329.466 426.442 335.109C426.87 340.752 425.702 346.401 423.069 351.412C420.436 356.422 416.445 360.591 411.553 363.441C406.661 366.291 401.066 367.709 395.406 367.53C389.746 367.352 384.25 365.585 379.548 362.433C374.845 359.28 371.125 354.868 368.814 349.702C366.502 344.536 365.691 338.824 366.475 333.219C367.258 327.614 369.604 322.343 373.245 318.008C369.379 312.757 427.811 297.692 427.705 301.073Z" fill="black"/>
</g>
<g opacity="0.2">
<path d="M311.424 390.84C311.405 391.474 311.333 392.105 311.206 392.727C307.111 392.076 302.993 391.488 298.851 390.963C298.851 390.798 298.851 390.628 298.851 390.457C298.889 388.694 299.397 386.973 300.322 385.471C301.534 383.554 303.375 382.354 305.405 382.419C307.435 382.484 309.194 383.795 310.283 385.777C311.106 387.333 311.5 389.081 311.424 390.84Z" fill="#3F3D56"/>
<path d="M311.756 380.794C311.9 376.246 309.2 372.471 305.724 372.361C302.249 372.252 299.315 375.849 299.171 380.396C299.028 384.944 301.728 388.719 305.204 388.829C308.679 388.939 311.613 385.341 311.756 380.794Z" fill="#3F3D56"/>
<path d="M312.077 370.727C312.221 366.18 309.52 362.404 306.045 362.294C302.569 362.185 299.636 365.782 299.492 370.33C299.348 374.877 302.049 378.653 305.524 378.762C308.999 378.872 311.933 375.275 312.077 370.727Z" fill="#3F3D56"/>
<path d="M312.392 360.66C312.536 356.112 309.835 352.337 306.36 352.227C302.885 352.117 299.951 355.715 299.807 360.262C299.664 364.81 302.364 368.585 305.839 368.695C309.315 368.805 312.248 365.207 312.392 360.66Z" fill="#3F3D56"/>
<path d="M312.708 350.593C312.851 346.045 310.151 342.27 306.675 342.16C303.2 342.05 300.266 345.648 300.123 350.195C299.979 354.743 302.68 358.518 306.155 358.628C309.63 358.738 312.564 355.14 312.708 350.593Z" fill="#3F3D56"/>
<path d="M285.006 280.74C284.178 279.618 283.431 278.439 282.771 277.212L299.398 275.018L281.5 274.589C279.903 270.803 279.095 266.731 279.126 262.622C279.158 258.513 280.027 254.453 281.682 250.692L305.288 263.893L283.665 246.935C285.846 243.409 288.732 240.37 292.141 238.009C295.55 235.648 299.409 234.014 303.479 233.21C307.548 232.407 311.739 232.45 315.791 233.338C319.842 234.226 323.667 235.939 327.026 238.371C330.386 240.803 333.207 243.9 335.315 247.471C337.422 251.041 338.771 255.007 339.275 259.122C339.78 263.236 339.431 267.411 338.249 271.384C337.067 275.358 335.078 279.045 332.406 282.216C333.695 283.959 334.79 285.839 335.671 287.819L313.849 298.286L336.989 291.33C338.447 296.135 338.682 301.228 337.673 306.147C336.664 311.067 334.443 315.657 331.212 319.502C334.571 324.057 336.58 329.466 337.009 335.109C337.438 340.752 336.269 346.401 333.636 351.412C331.003 356.422 327.013 360.591 322.121 363.441C317.229 366.292 311.633 367.709 305.973 367.53C300.313 367.352 294.818 365.585 290.115 362.433C285.413 359.28 281.693 354.868 279.381 349.702C277.069 344.536 276.259 338.824 277.042 333.219C277.826 327.614 280.172 322.343 283.812 318.008C279.798 312.564 277.732 305.929 277.945 299.17C278.159 292.411 280.639 285.92 284.989 280.74H285.006Z" fill="#00B7FF"/>
<path opacity="0.1" d="M338.272 301.073C338.066 307.836 335.578 314.331 331.212 319.502C334.571 324.057 336.58 329.466 337.009 335.109C337.438 340.752 336.269 346.401 333.636 351.412C331.003 356.422 327.013 360.591 322.121 363.441C317.229 366.292 311.633 367.709 305.973 367.53C300.313 367.352 294.818 365.585 290.115 362.433C285.413 359.28 281.693 354.868 279.381 349.702C277.069 344.536 276.259 338.824 277.042 333.219C277.826 327.614 280.172 322.343 283.812 318.008C279.946 312.757 338.378 297.692 338.272 301.073Z" fill="black"/>
</g>
<g opacity="0.2">
<path d="M555.718 397.273C555.673 398.474 555.529 399.67 555.288 400.848C547.404 399.589 539.463 398.464 531.465 397.473C531.465 397.155 531.465 396.832 531.465 396.502C531.54 393.107 532.519 389.792 534.301 386.9C536.655 383.213 540.185 380.902 544.086 381.02C547.987 381.138 551.382 383.672 553.5 387.488C555.097 390.494 555.863 393.872 555.718 397.273Z" fill="#3F3D56"/>
<path d="M556.358 377.913C556.635 369.156 551.433 361.885 544.739 361.674C538.045 361.462 532.395 368.39 532.118 377.148C531.841 385.905 537.043 393.176 543.737 393.387C550.43 393.599 556.081 386.671 556.358 377.913Z" fill="#3F3D56"/>
<path d="M556.97 358.532C557.246 349.774 552.044 342.504 545.351 342.292C538.657 342.081 533.006 349.009 532.729 357.766C532.452 366.524 537.654 373.794 544.348 374.006C551.042 374.217 556.693 367.289 556.97 358.532Z" fill="#3F3D56"/>
<path d="M557.587 339.151C557.864 330.393 552.662 323.123 545.968 322.911C539.274 322.7 533.623 329.628 533.346 338.385C533.069 347.143 538.271 354.413 544.965 354.625C551.659 354.836 557.31 347.908 557.587 339.151Z" fill="#3F3D56"/>
<path d="M557.508 318.887C557.771 310.126 552.555 302.86 545.858 302.659C539.161 302.458 533.519 309.398 533.256 318.16C532.993 326.922 538.208 334.188 544.906 334.388C551.603 334.589 557.245 327.649 557.508 318.887Z" fill="#3F3D56"/>
<path d="M504.853 185.316C503.265 183.158 501.828 180.892 500.552 178.537L532.559 174.315L498.11 173.485C495.033 166.197 493.476 158.358 493.535 150.447C493.593 142.537 495.266 134.721 498.451 127.479L543.903 152.887L502.282 120.241C506.49 113.469 512.049 107.636 518.612 103.106C525.175 98.5754 532.601 95.4443 540.428 93.9079C548.254 92.3714 556.314 92.4624 564.104 94.1752C571.894 95.888 579.247 99.1859 585.706 103.863C592.165 108.541 597.591 114.498 601.645 121.363C605.699 128.228 608.295 135.853 609.271 143.765C610.247 151.676 609.582 159.704 607.318 167.348C605.054 174.991 601.238 182.086 596.11 188.192C598.589 191.552 600.697 195.17 602.4 198.982L560.384 219.145L604.93 205.738C607.737 214.978 608.194 224.773 606.26 234.234C604.325 243.695 600.06 252.525 593.85 259.924C600.317 268.694 604.184 279.106 605.008 289.969C605.833 300.832 603.582 311.707 598.513 321.352C593.444 330.997 585.762 339.022 576.345 344.509C566.928 349.995 556.155 352.723 545.26 352.38C534.364 352.037 523.786 348.636 514.733 342.567C505.68 336.498 498.519 328.006 494.068 318.061C489.617 308.117 488.056 297.121 489.564 286.331C491.072 275.542 495.587 265.394 502.594 257.048C494.871 246.568 490.895 233.798 491.305 220.789C491.714 207.779 496.486 195.285 504.853 185.311V185.316Z" fill="#00B7FF"/>
<path opacity="0.1" d="M607.407 224.455C607.021 237.467 602.253 249.968 593.874 259.936C600.341 268.706 604.207 279.118 605.032 289.981C605.856 300.844 603.606 311.719 598.537 321.364C593.468 331.009 585.786 339.033 576.368 344.52C566.951 350.007 556.179 352.735 545.283 352.392C534.388 352.048 523.809 348.648 514.756 342.579C505.704 336.51 498.543 328.018 494.092 318.073C489.641 308.128 488.08 297.133 489.588 286.343C491.095 275.554 495.611 265.406 502.617 257.06C495.121 246.94 607.613 217.945 607.407 224.455Z" fill="black"/>
</g>
<path d="M93.455 398.307L99.6271 398.29H108.329L119.332 219.662L228.293 37.9477L223.557 32.8673V20.0015L105.717 215.452L93.455 398.307Z" fill="#F1C0C0"/>
<path opacity="0.1" d="M100.286 398.29H108.329L119.332 219.662L228.293 37.9478L223.557 32.8673L111.165 216.94L100.286 398.29Z" fill="black"/>
<path d="M75.2684 399.795L357.6 421.387L357.841 421.405L631.077 404.611L631.283 404.599V393.068L330.211 387.547L79.0281 387.306H77.1924L76.9923 388.599L75.2684 399.795Z" fill="#F1C0C0"/>
<path opacity="0.1" d="M75.2684 399.795L357.6 421.387L357.841 421.405L631.077 404.611L631.283 404.388V393.309H631.042L357.6 402.435L79.0281 387.306H78.9869L78.4927 387.629L76.9923 388.599L75.2684 399.795Z" fill="black"/>
<path opacity="0.1" d="M75.2686 399.795L357.6 421.387V402.435L78.4928 387.629L76.9925 388.599L75.2686 399.795Z" fill="black"/>
<path d="M223.521 32.6262L347.992 166.141L344.144 400.995L354.717 402.271L354.894 402.294H365.467L366.732 176.226L599.805 254.032L603.735 392.568L612.243 393.521L615.126 393.844L608.454 244.424L364.808 158.938L231.212 20.1367H223.521V32.6262Z" fill="#F1C0C0"/>
<path opacity="0.1" d="M365.772 171.904L366.732 176.226L599.805 254.032L603.735 392.569L612.243 393.521L605.571 251.151L365.772 171.904Z" fill="black"/>
<path opacity="0.1" d="M223.521 32.6262L347.992 166.141L344.144 400.995L354.717 402.271L357.6 158.456L223.521 20.1367V32.6262Z" fill="black"/>
<path d="M366.226 266.157L451.711 282.98L451.74 282.986L601.464 312.463L608.319 309.717L608.295 309.235L607.848 299.68L366.314 250.904L366.226 266.157Z" fill="#F1C0C0"/>
<path opacity="0.1" d="M451.74 282.986L601.464 312.463L608.319 309.717L608.295 309.235L451.74 282.986Z" fill="black"/>
<path d="M457.465 206.514L459.777 333.726L460.972 398.989L471.498 398.637L478.123 398.413L476.063 208.355L471.498 206.838L470.497 206.514H457.465Z" fill="#F1C0C0"/>
<path opacity="0.1" d="M457.56 206.485V206.514L459.778 333.726L460.972 398.99L471.498 398.637V206.485H457.56Z" fill="black"/>
<path d="M292.584 239.002C293.202 239.338 293.792 239.721 294.35 240.149C295.009 240.726 295.601 241.374 296.115 242.083C298.639 245.347 300.969 249.14 300.722 253.256C300.727 253.855 300.614 254.449 300.389 255.004C300.163 255.559 299.831 256.064 299.41 256.49C298.368 257.378 296.874 257.419 295.509 257.419C294.026 257.419 292.467 257.419 291.184 256.655C289.901 255.89 288.831 254.402 287.313 254.438C287.098 254.473 286.88 254.473 286.665 254.438C286.142 254.267 286.036 253.579 285.695 253.144C285.106 252.362 283.865 252.556 282.941 252.897C282.017 253.238 280.993 253.75 280.081 253.356C279.552 253.077 279.119 252.644 278.84 252.115C276.657 248.587 276.192 244.347 275.78 240.249C275.527 237.756 273.598 229.253 278.922 231.188C281.276 232.034 283.476 233.728 285.618 234.968L292.584 239.002Z" fill="#3F3D56"/>
<path d="M287.325 239.843C287.801 240.185 288.377 240.358 288.962 240.335C289.548 240.311 290.109 240.093 290.555 239.714C291.431 238.923 291.99 237.84 292.126 236.668C292.715 236.486 293.015 237.256 293.391 237.726C294.05 238.526 295.392 238.514 295.992 239.367C296.41 239.955 296.315 240.772 296.61 241.437C296.992 242.295 297.939 242.742 298.587 243.436C299.198 244.194 299.639 245.074 299.881 246.017L300.846 248.911C301.308 250.114 301.605 251.374 301.729 252.656C301.789 253.297 301.722 253.944 301.53 254.559C301.338 255.174 301.025 255.744 300.611 256.237C299.316 257.631 297.192 257.778 295.315 257.737C294.688 257.75 294.063 257.677 293.456 257.519C291.791 257.002 290.726 255.326 290.285 253.638C289.843 251.951 289.89 250.181 289.632 248.452C289.352 246.754 288.858 245.098 288.161 243.524C287.643 242.301 286.219 240.478 286.242 239.179C286.666 239.179 286.972 239.567 287.325 239.843Z" fill="#3F3D56"/>
<path d="M289.437 233.886C289.162 233.051 289.001 232.183 288.96 231.305C288.96 229.541 289.766 227.883 290.578 226.307L283.853 227.218C283.041 227.33 282.135 227.495 281.676 228.171C281.502 228.506 281.411 228.878 281.411 229.256C281.411 229.633 281.502 230.006 281.676 230.341C282.013 231.012 282.281 231.715 282.476 232.44C282.492 233.074 282.565 233.706 282.694 234.327C282.903 234.784 283.197 235.197 283.559 235.545C285.483 237.673 286.925 240.184 288.36 242.671C288.319 242.601 292.414 239.431 292.249 238.396C292.155 237.808 290.973 237.103 290.596 236.538C290.076 235.719 289.685 234.825 289.437 233.886Z" fill="#BE6F72"/>
<path d="M347.098 210.913V216.705L247.856 236.05L242.708 239.167H224.945V235.903L322.451 212.359L347.098 210.913Z" fill="#F1C0C0"/>
<path opacity="0.1" d="M347.098 216.705L247.856 236.05L242.708 239.167H224.945L323.174 218.157L347.098 216.705Z" fill="black"/>
<path d="M267.42 375.334C266.314 373.995 264.788 373.071 263.089 372.71C261.39 372.349 259.62 372.573 258.065 373.346C257.732 373.503 257.438 373.732 257.206 374.017C256.617 374.84 256.994 375.975 257.047 376.992C257.182 379.473 255.205 381.49 253.428 383.225C252.475 384.154 251.504 385.148 251.075 386.412C250.645 387.676 250.963 389.281 252.116 389.94C252.62 390.192 253.167 390.344 253.728 390.387C255.609 390.754 257.537 390.807 259.436 390.546C261.313 390.187 263.154 389.123 263.966 387.394C264.123 386.925 264.382 386.497 264.725 386.141C265.761 385.324 267.349 386.283 268.526 385.7C269.497 385.218 269.538 384.46 269.55 383.46C269.585 380.696 269.173 377.568 267.42 375.334Z" fill="#00B7FF"/>
<path d="M281.541 375.228C282.265 377.133 282.365 379.209 282.459 381.243C282.512 382.419 282.547 383.678 281.912 384.671C281.276 385.665 280.035 386.188 278.847 386.435C276.393 386.941 273.551 386.465 271.968 384.518C270.756 383.031 270.503 380.99 270.727 379.062C270.915 377.48 271.315 375.628 270.18 374.504C269.886 374.205 269.503 373.993 269.232 373.669C268.644 372.952 268.738 371.87 269.056 370.988C269.47 370.145 269.78 369.254 269.98 368.336C270.027 367.901 277.946 368.642 278.676 369.001C279.67 369.489 279.517 370.306 279.817 371.294C280.235 372.67 281.035 373.911 281.541 375.228Z" fill="#00B7FF"/>
<path d="M282.994 290.754C284.547 291.759 285.148 293.735 285.389 295.569C286.054 300.597 284.889 305.677 284.8 310.752C284.718 317.861 286.777 325.1 285.018 331.985C283.965 336.101 284.859 340.805 283.871 344.963C283.577 346.198 283.035 347.362 282.753 348.597C282.165 351.272 282.782 354.071 283.612 356.688C283.877 357.393 284.045 358.131 284.112 358.881C284.072 360.036 283.779 361.168 283.253 362.197L279.723 370.541C279.329 371.476 277.775 371.629 276.781 371.753C274.91 371.976 272.821 372.135 271.333 370.977C269.844 369.818 269.485 367.878 269.256 366.067C268.815 362.59 268.619 359.087 268.667 355.582C268.732 354.668 268.65 353.749 268.426 352.86C268.102 351.854 267.39 350.984 267.196 349.92C266.949 348.544 267.649 347.191 267.908 345.804C268.086 344.536 268.066 343.249 267.849 341.987C267.62 340.106 267.355 338.224 267.055 336.354C266.631 333.738 267.237 331.156 267.643 328.534C268.026 326.07 267.538 323.559 267.055 321.113C267.097 323.098 266.849 325.079 266.32 326.993C266.008 327.928 265.561 328.822 265.29 329.774C264.084 334.049 266.655 338.536 266.29 342.963C266.12 345.033 265.308 347.08 265.537 349.12C265.696 350.614 266.39 351.984 266.867 353.407C267.343 354.83 267.591 356.458 266.867 357.787C264.955 361.398 266.384 366.308 268.097 370.012C268.444 370.669 268.747 371.349 269.003 372.047C269.509 373.717 269.085 375.51 269.22 377.251C268.728 377.331 268.223 377.299 267.745 377.155C267.267 377.011 266.827 376.76 266.461 376.422C266.202 376.151 265.99 375.834 265.737 375.551C265.03 374.878 264.193 374.356 263.278 374.017C262.74 373.716 262.128 373.575 261.513 373.611C260.866 373.791 260.284 374.152 259.836 374.652C259.254 375.163 258.636 375.633 257.988 376.057C257.712 376.269 257.389 376.412 257.047 376.475C256.875 376.501 256.698 376.473 256.543 376.394C256.388 376.315 256.261 376.188 256.182 376.033C256.145 375.935 256.123 375.832 256.117 375.728C255.899 373.952 255.783 372.166 255.77 370.377C255.77 367.301 252.087 365.185 251.622 362.145C251.251 359.693 251.94 357.193 251.71 354.724C251.598 353.454 251.245 352.207 251.269 350.937C251.269 350.114 251.457 349.308 251.522 348.491C251.576 347.584 251.562 346.674 251.481 345.768L251.298 342.928C251.122 340.123 250.928 337.26 249.822 334.696C248.51 331.702 247.733 328.502 247.527 325.241C247.409 323.183 247.486 321.125 247.25 319.061C247.039 317.197 246.568 315.344 246.703 313.474C246.815 312.028 247.292 310.628 247.403 309.182C247.633 306.401 246.574 303.696 245.744 301.032C244.915 298.368 244.303 295.417 245.391 292.847C245.547 292.425 245.806 292.049 246.144 291.753C246.562 291.477 247.037 291.3 247.533 291.236C257.628 289.116 267.975 288.457 278.258 289.278C279.934 289.373 281.561 289.88 282.994 290.754Z" fill="#3F3D56"/>
<path d="M249.592 228.3C254.797 228.3 259.018 224.083 259.018 218.88C259.018 213.678 254.797 209.46 249.592 209.46C244.386 209.46 240.166 213.678 240.166 218.88C240.166 224.083 244.386 228.3 249.592 228.3Z" fill="#BE6F72"/>
<path d="M247.768 230.647C247.904 231.185 247.904 231.749 247.768 232.287C247.62 232.663 247.411 233.013 247.15 233.322C246.238 234.498 245.228 235.596 244.132 236.603C244.69 237.85 245.696 238.842 246.95 239.384C248.196 239.914 249.502 240.288 250.839 240.496C251.507 240.671 252.202 240.719 252.887 240.637C253.519 240.478 254.117 240.207 254.652 239.837L259.889 236.703C260.679 236.275 261.411 235.748 262.066 235.133C263.026 234.147 263.57 232.828 263.584 231.452C263.608 231.206 263.541 230.959 263.395 230.758C263.195 230.584 262.943 230.478 262.678 230.458C260.836 230.053 259.383 228.559 258.559 226.866C257.814 225.13 257.332 223.292 257.129 221.415L251.546 224.355C250.716 224.796 249.892 225.237 249.033 225.619C248.486 225.866 247.38 226.072 246.992 226.572C246.25 227.495 247.574 229.535 247.768 230.647Z" fill="#BE6F72"/>
<path d="M244.167 234.892C243.372 235.543 242.752 236.382 242.361 237.332C241.996 238.508 242.361 239.749 242.69 240.913C244.235 245.876 245.415 250.944 246.221 256.078C246.715 259.606 246.897 263.187 247.139 266.757C247.633 274.036 248.351 285.644 249.31 292.876C252.84 293.035 256.282 292.006 259.783 291.63C266.326 290.936 273.062 292.523 279.47 291.042C277.917 284.909 276.363 274.436 274.81 268.309C274.123 265.895 273.646 263.426 273.386 260.929C273.251 259.136 273.333 257.337 273.357 255.531C273.41 252.003 273.215 248.475 273.021 244.947C272.798 240.831 272.574 236.715 271.597 232.687C271.529 232.174 271.289 231.699 270.915 231.34C270.326 230.911 269.562 231.064 268.861 231.158C266.718 231.43 264.548 230.916 262.754 229.712C261.977 229.182 260.936 228.536 260.212 229.124C259.903 229.478 259.7 229.912 259.624 230.376C259.304 231.208 258.809 231.962 258.174 232.588C257.539 233.213 256.778 233.696 255.941 234.004C254.264 234.611 252.508 234.971 250.728 235.074C250.183 235.191 249.615 235.127 249.11 234.892C248.274 234.38 248.215 232.54 247.162 232.416C246.238 232.311 244.791 234.298 244.167 234.892Z" fill="#3F3D56"/>
<path d="M258.088 249.251C255.917 247.176 254.964 244.165 253.381 241.607C252.303 239.887 250.926 238.374 249.315 237.138C248.505 236.604 247.763 235.974 247.103 235.262C246.544 234.574 246.12 233.657 245.273 233.393C244.923 233.316 244.56 233.326 244.214 233.422C243.869 233.517 243.552 233.695 243.29 233.939C242.772 234.433 242.281 234.956 241.819 235.504C239.325 238.085 234.941 238.444 232.964 241.431C232.431 242.064 232.068 242.823 231.911 243.636C231.342 247.983 232.467 252.383 235.053 255.925C235.554 256.746 236.323 257.369 237.23 257.689C237.107 258.786 237.252 259.896 237.654 260.923C238.743 264.645 240.082 268.289 241.661 271.831C241.283 273.217 241.019 274.631 240.872 276.059C240.46 279.652 240.843 283.298 240.454 286.896C240.137 289.836 239.278 292.7 239.248 295.646C239.248 296.116 239.289 296.675 239.695 296.916C239.911 297.027 240.153 297.078 240.396 297.063L247.633 297.281C251.834 297.404 256.076 297.528 260.212 296.751C260.763 296.67 261.297 296.501 261.795 296.251C263.195 295.469 263.66 293.705 263.883 292.135C264.175 290.099 264.292 288.041 264.231 285.985C265.107 288.754 266.149 291.618 268.796 292.818C270.197 293.453 271.797 293.406 273.333 293.364C276.643 293.217 279.941 292.877 283.212 292.347C283.413 292.372 283.618 292.35 283.809 292.281C284 292.213 284.173 292.101 284.313 291.954C284.453 291.807 284.557 291.63 284.616 291.435C284.675 291.241 284.688 291.036 284.653 290.836L284.688 287.625C284.759 281.104 283.141 274.871 282.511 268.38C282.311 266.333 282.329 264.263 281.829 262.258C281.623 261.417 281.323 260.594 281.14 259.747C280.983 258.918 280.885 258.079 280.846 257.237L280.387 250.768C280.17 247.775 279.858 244.888 279.628 241.901C279.502 238.992 279.08 236.104 278.369 233.281C277.857 231.517 276.792 229.518 274.951 229.3C273.968 229.188 273.015 229.618 272.08 229.917C269.78 230.641 267.312 230.631 265.019 229.888C264.31 229.608 263.572 229.411 262.819 229.3C262.439 229.248 262.053 229.299 261.699 229.445C261.346 229.592 261.037 229.83 260.806 230.135C260.578 230.594 260.471 231.104 260.494 231.617C260.218 237.491 259.706 243.542 258.088 249.251Z" fill="#00B7FF"/>
<path d="M248.621 249.428C245.909 246.57 243.126 243.659 239.631 241.842C238.254 241.125 236.689 240.584 235.165 240.855C233.641 241.125 232.223 242.448 232.294 243.995C232.341 244.953 232.923 245.8 233.106 246.741C233.317 247.799 233.011 248.928 233.341 249.951C233.609 250.625 234.009 251.239 234.518 251.756L238.683 256.69C240.448 258.748 242.214 260.835 244.485 262.258C246.756 263.681 249.698 264.346 252.192 263.334C253.967 262.51 255.443 261.156 256.417 259.459C257.452 257.813 258.182 256.014 259.153 254.314C260.664 251.599 262.658 249.182 265.037 247.182C263.813 246.864 262.277 246.417 261.506 245.418C261.287 245.1 261.1 244.761 260.947 244.406L259.994 242.348C259.67 242.331 259.346 242.382 259.042 242.496C258.738 242.61 258.462 242.786 258.229 243.013C257.82 243.485 257.382 243.931 256.917 244.347C256.087 244.971 254.964 245.141 254.211 245.853C253.919 246.158 253.655 246.489 253.422 246.841C252.852 247.589 252.129 248.207 251.301 248.653C250.473 249.099 249.559 249.363 248.621 249.428Z" fill="#3F3D56"/>
<path d="M265.255 237.132C267.296 233.41 267.202 228.947 267.785 224.743C267.848 223.629 268.239 222.559 268.909 221.667C270.085 220.339 272.162 220.321 273.939 220.491C274.463 220.55 275.116 220.797 275.086 221.32C275.045 221.508 274.954 221.681 274.822 221.82C273.099 224.042 272.087 226.73 271.915 229.535C272.839 230.176 274.269 228.859 275.157 229.535C275.745 230.029 275.475 231.005 275.122 231.711C274.302 233.345 273.457 234.968 272.586 236.58C271.891 238 270.984 239.306 269.897 240.455C269.15 241.172 268.273 241.736 267.514 242.442C265.749 244.094 264.684 246.429 262.86 248.04C262.706 248.207 262.497 248.313 262.272 248.34C262.04 248.323 261.821 248.225 261.654 248.063C260.743 247.323 259.987 246.41 259.43 245.376C258.736 244.094 258.841 243.718 259.936 242.812C261.983 241.195 263.978 239.461 265.255 237.132Z" fill="#BE6F72"/>
<path d="M245.209 246.899C245.562 247.117 245.997 247.364 246.386 247.182C246.544 247.086 246.679 246.955 246.78 246.799C247.453 245.902 248.014 244.927 248.451 243.895C248.526 243.749 248.568 243.588 248.575 243.424C248.575 243.048 248.239 242.771 247.927 242.554C246.256 241.49 244.46 240.636 242.579 240.014C241.026 239.426 239.402 238.914 237.754 239.061C237.135 239.103 236.531 239.269 235.978 239.55C235.425 239.831 234.934 240.221 234.536 240.696C233.359 242.207 235.33 242.666 236.566 243.213C239.425 244.512 242.52 245.265 245.209 246.899Z" fill="#00B7FF"/>
<path opacity="0.1" d="M243.355 256.896C243.335 257.03 243.347 257.167 243.39 257.295C243.433 257.424 243.506 257.541 243.602 257.636C243.773 256.801 243.549 255.919 243.726 255.079C243.985 253.814 245.214 252.862 245.32 251.592C243.067 251.151 243.373 255.531 243.355 256.896Z" fill="black"/>
<path opacity="0.2" d="M347.097 210.913V216.705L323.174 218.157L322.45 212.359L347.097 210.913Z" fill="black"/>
<path d="M241.107 220.28C242.602 219.062 241.737 216.51 242.749 214.876C243.337 213.982 244.332 213.511 245.308 213.112C246.487 212.56 247.75 212.211 249.044 212.077C249.693 212.014 250.347 212.099 250.958 212.324C251.569 212.549 252.122 212.909 252.575 213.376C252.957 213.811 253.216 214.341 253.575 214.793C254.019 215.322 254.599 215.72 255.251 215.945C255.904 216.171 256.606 216.216 257.282 216.075C258.064 215.899 258.876 215.305 258.823 214.505C258.735 214.019 258.486 213.576 258.117 213.247L256.434 211.383C254.522 209.266 252.398 207.02 249.592 206.491C247.638 206.12 245.638 206.643 243.755 207.273C242.996 207.525 242.143 207.902 241.931 208.672C241.79 209.201 242.002 209.778 241.878 210.313C241.637 211.377 240.272 211.736 239.636 212.629C239.001 213.523 239.195 214.582 239.013 215.57C238.83 216.557 238.301 217.522 238.236 218.545C238.195 219.162 238.507 220.309 239.201 220.532C239.895 220.756 240.678 219.545 241.107 220.28Z" fill="#3F3D56"/>
<path d="M258.253 213.659C257.757 211.072 256.687 208.628 255.123 206.508C253.732 204.528 251.797 202.992 249.551 202.087C248.428 201.648 247.221 201.47 246.02 201.564C244.818 201.659 243.654 202.025 242.614 202.633C241.07 203.735 239.869 205.249 239.148 207.002C237.625 210.284 237.06 214.294 238.831 217.446C239.537 216.587 240.749 216.975 241.82 216.663C243.161 216.281 244.297 215.387 245.574 214.829C249.427 213.13 254.134 214.505 258.253 213.659Z" fill="#FED253"/>
<path opacity="0.1" d="M239.731 213.476C239.596 212.418 239.507 211.189 240.261 210.436C240.298 210.39 240.346 210.353 240.4 210.329C240.454 210.304 240.513 210.293 240.572 210.295C240.625 210.312 240.673 210.34 240.715 210.376C240.756 210.413 240.79 210.457 240.814 210.507C241.248 211.193 241.619 211.917 241.92 212.671C241.481 212.57 241.022 212.603 240.603 212.765C240.183 212.928 239.822 213.212 239.566 213.582" fill="black"/>
<path opacity="0.1" d="M253.482 210.489L253.27 208.39C253.236 208.217 253.25 208.038 253.311 207.873C253.4 207.734 253.537 207.633 253.695 207.59C253.854 207.547 254.023 207.563 254.17 207.637C254.459 207.798 254.698 208.036 254.858 208.325C255.348 209.077 255.755 209.879 256.07 210.719C255.123 210.536 254.148 210.548 253.205 210.754" fill="black"/>
<path opacity="0.1" d="M258.748 295.687V300.485L254.694 300.756H233.371V295.687H258.748Z" fill="black"/>
<path d="M258.748 295.687V300.756H233.371L165.955 216.358V212.371H180.088L258.748 295.687Z" fill="#F1C0C0"/>
<path opacity="0.1" d="M258.748 295.687V300.756H233.371L165.955 216.358V212.371H180.088L258.748 295.687Z" fill="black"/>
<path opacity="0.1" d="M258.748 295.687V300.756H233.371L165.955 216.358V212.371L233.736 295.687H258.748Z" fill="black"/>
<path d="M174.792 380.279C174.836 380.517 174.831 380.762 174.776 380.999C174.722 381.235 174.619 381.458 174.474 381.653C174.329 381.847 174.146 382.01 173.935 382.131C173.725 382.252 173.492 382.328 173.25 382.355C171.615 382.907 169.879 383.454 168.72 384.707C167.561 385.959 167.331 388.282 168.72 389.299C169.43 389.727 170.245 389.949 171.073 389.94C173.739 390.122 176.516 390.087 178.934 388.958C180.664 388.158 182.294 386.794 184.194 386.918C185.177 386.976 186.224 387.435 187.101 386.988C187.977 386.541 188.225 385.295 188.23 384.254C188.253 382.081 187.925 379.919 187.26 377.85C187.171 377.568 183.429 377.351 182.982 377.262L178.446 376.674C177.587 376.563 175.733 375.916 175.057 376.633C174.38 377.351 174.792 379.426 174.792 380.279Z" fill="#00B7FF"/>
<path d="M201.863 365.602C202.055 366.661 202.367 367.695 202.793 368.683C203.422 370.283 204.228 371.982 205.77 372.758C207.17 373.458 208.888 373.205 210.312 372.541C210.906 372.295 211.427 371.9 211.824 371.394C212.284 370.594 212.489 369.673 212.413 368.754C212.413 366.478 212.277 364.126 211.236 362.103C210.342 360.339 208.782 358.822 208.759 356.87L203.399 357.905C203.112 357.932 202.839 358.04 202.61 358.217C202.441 358.395 202.323 358.617 202.269 358.857C201.697 361.058 201.559 363.349 201.863 365.602Z" fill="#00B7FF"/>
<path d="M137.853 309.741C137.63 311.634 137.724 313.663 138.712 315.297C139.701 316.932 141.784 318.014 143.584 317.361C143.676 317.338 143.763 317.296 143.839 317.238C143.915 317.181 143.978 317.109 144.025 317.026C144.073 316.827 144.046 316.618 143.949 316.438C143.154 314.318 143.22 311.972 144.131 309.899C144.249 309.629 144.502 309.311 144.779 309.417C144.894 309.476 144.987 309.571 145.043 309.688C145.328 310.18 145.471 310.742 145.455 311.311C145.372 311.826 145.356 312.35 145.408 312.869C145.52 313.374 146.061 313.851 146.532 313.633C146.668 313.55 146.786 313.439 146.878 313.309C146.97 313.179 147.034 313.031 147.067 312.875C148.379 309.082 147.785 304.936 147.185 300.967C147.19 300.876 147.175 300.785 147.141 300.7C147.107 300.616 147.054 300.54 146.988 300.477C146.921 300.415 146.841 300.368 146.754 300.34C146.667 300.312 146.575 300.303 146.485 300.315C143.708 300.038 142.19 299.374 140.601 301.955C139.236 304.131 137.853 307.124 137.853 309.741Z" fill="#00B7FF"/>
<path d="M170.32 300.091C169.497 303.513 168.667 306.977 168.614 310.493C168.629 312.683 168.794 314.87 169.108 317.038L169.726 322.13C169.938 323.847 170.144 325.558 170.444 327.257C170.635 328.133 170.74 329.025 170.756 329.921C170.698 330.804 170.558 331.68 170.338 332.538C169.968 334.338 169.761 336.169 169.72 338.006C169.656 340.946 170.02 343.887 170.25 346.827C170.708 352.685 170.639 358.574 170.044 364.42C169.806 365.998 170.149 367.609 171.009 368.954C171.358 369.378 171.645 369.849 171.862 370.353C172.303 371.7 171.274 373.046 171.009 374.428C170.839 375.506 171.105 376.606 171.747 377.488C172.389 378.37 173.355 378.962 174.433 379.132C179.14 379.691 183.977 379.438 188.219 381.59C188.666 380.285 187.689 378.803 188.136 377.474C188.419 376.651 189.195 376.116 189.725 375.422C190.436 374.365 190.791 373.108 190.737 371.835C190.758 370.173 190.462 368.523 189.866 366.972C189.366 365.678 188.648 364.402 188.689 363.015C188.689 362.333 188.931 361.615 188.654 360.986C188.464 360.625 188.207 360.303 187.895 360.039C186.137 358.114 185.056 355.667 184.818 353.071C184.588 350.495 184.671 347.901 185.065 345.345C185.353 342.91 185.742 340.341 187.289 338.442C186.572 332.682 186.993 326.839 188.531 321.242C188.684 320.725 188.925 320.125 189.454 320.001C189.665 319.98 189.877 320.009 190.074 320.087C190.27 320.165 190.445 320.289 190.584 320.448C191.508 321.313 191.949 322.565 192.349 323.765C192.79 325.064 193.238 326.452 192.902 327.781C192.761 328.369 192.479 328.886 192.314 329.451C191.956 330.585 192.019 331.81 192.49 332.902C192.72 333.302 192.865 333.744 192.914 334.202C192.859 334.595 192.74 334.977 192.561 335.331C192.343 336.027 192.273 336.761 192.358 337.485C192.442 338.209 192.677 338.908 193.049 339.535C193.799 340.784 194.725 341.919 195.797 342.905C195.285 345.161 195.417 347.517 196.179 349.702C196.234 349.801 196.27 349.909 196.283 350.021C196.296 350.133 196.287 350.246 196.256 350.355C196.15 350.578 195.879 350.661 195.668 350.819C195.079 351.301 195.444 352.213 195.838 352.842C196.919 354.569 198.112 356.223 199.41 357.793C200.586 359.199 200.48 361.909 202.234 362.415C202.971 362.574 203.733 362.574 204.47 362.415C206.199 362.15 208.129 361.651 208.977 360.122C209.324 359.493 209.465 358.728 210.006 358.258C210.548 357.787 211.248 357.705 211.548 357.14C211.848 356.576 211.513 355.835 211.613 355.182C211.713 354.53 212.283 354.006 212.466 353.318C212.901 351.731 211.048 350.425 210.795 348.802C210.43 346.45 213.395 344.686 213.272 342.334C213.013 337.224 212.848 332.091 212.583 326.981C212.251 322.404 212.204 317.81 212.442 313.227C212.648 310.376 213.031 307.388 211.983 304.736C210.477 300.997 206.323 298.897 202.304 298.498C198.286 298.098 194.279 299.05 190.296 299.674C183.685 300.692 176.968 300.832 170.32 300.091Z" fill="#3F3D56"/>
<path d="M182.265 243.888C187.47 243.888 191.69 239.671 191.69 234.468C191.69 229.266 187.47 225.048 182.265 225.048C177.059 225.048 172.839 229.266 172.839 234.468C172.839 239.671 177.059 243.888 182.265 243.888Z" fill="#FBBEBE"/>
<path d="M178.428 245.647C178.108 246.392 177.57 247.023 176.884 247.456C176.198 247.89 175.397 248.106 174.586 248.075C174.245 249.487 175.063 250.91 175.998 252.021C177.941 254.28 180.451 255.981 183.271 256.947C186.09 257.913 189.116 258.111 192.037 257.519C193.174 257.315 194.252 256.866 195.197 256.202C196.47 255.139 197.325 253.66 197.609 252.027C197.88 250.405 197.957 248.757 197.839 247.117C197.872 246.793 197.779 246.469 197.58 246.211C197.344 246.029 197.054 245.934 196.756 245.941C194.767 245.764 192.69 245.688 190.943 244.712C189.195 243.736 187.954 241.531 188.795 239.72C188.66 240.002 185.224 240.137 184.771 240.196C183.353 240.396 181.935 240.619 180.523 240.878C179.844 240.915 179.174 241.042 178.528 241.254C177.675 241.695 177.993 241.478 178.193 242.277C178.493 243.501 178.934 244.377 178.428 245.647Z" fill="#FBBEBE"/>
<path d="M185.6 251.374C184.331 251.388 183.064 251.248 181.829 250.956C180.581 250.665 179.482 249.932 178.734 248.892C178.298 248.234 178.016 247.405 177.322 247.034C176.186 246.446 174.892 247.44 173.986 248.351C173.161 249.25 172.204 250.019 171.15 250.633C169.891 251.297 168.42 251.533 167.231 252.315C166.303 253.016 165.506 253.876 164.878 254.855L156.54 266.204C153.192 270.767 150.28 275.665 147.297 280.481C144.714 284.65 143.361 289.448 141.413 293.946C141.259 294.221 141.195 294.538 141.231 294.852C141.301 295.158 141.672 295.404 141.931 295.228C141.054 296.098 141.825 297.58 141.619 298.803C141.385 299.659 140.897 300.424 140.219 300.997C141.514 300.828 142.829 300.889 144.102 301.179C145.418 301.552 146.66 302.148 147.773 302.943C148.485 302.831 148.421 301.567 148.95 301.096C149.268 300.82 149.739 300.855 150.156 300.773C151.727 300.467 152.351 298.58 153.557 297.515C154.563 296.628 155.987 296.339 157.052 295.504C158.782 294.146 159.153 291.729 160.059 289.724C160.83 288.025 162.042 286.543 162.718 284.803C163.16 283.674 163.371 282.45 164.001 281.41C165.007 279.728 166.902 278.834 168.708 278.029C169.849 277.517 171.061 276.988 172.291 277.07C172.226 279.804 171.879 282.498 172.473 285.167C172.679 286.108 172.968 287.025 173.215 287.96C174.339 292.17 174.603 296.557 174.656 300.897C177.36 300.278 180.121 299.947 182.894 299.909C185.076 299.844 187.253 300.126 189.436 300.085C192.025 300.038 194.585 299.538 197.173 299.362C199.762 299.185 202.469 299.362 204.758 300.538C204.572 296.811 204.676 293.076 205.069 289.366L205.693 283.521C205.834 281.823 206.095 280.137 206.476 278.476C206.817 277.135 207.311 275.841 207.688 274.506C209.012 269.802 208.77 264.781 208.517 259.882C208.388 257.366 207.417 254.89 206.276 252.65C205.862 251.818 205.391 251.016 204.864 250.251C203.484 248.351 201.646 246.832 199.52 245.835C197.395 244.837 195.051 244.394 192.708 244.547C192.408 244.556 192.113 244.62 191.837 244.735C191.34 245.053 190.952 245.514 190.725 246.058C189.508 248.245 187.741 250.077 185.6 251.374Z" fill="#3F3D56"/>
<path d="M173.974 237.591C174.239 237.003 174.951 236.785 175.386 236.315C176.222 235.421 175.845 233.992 175.975 232.787C176.186 231.023 177.652 229.547 179.328 228.918C181.038 228.369 182.858 228.254 184.624 228.583C185.474 228.645 186.295 228.917 187.013 229.376C187.319 229.6 187.601 229.888 187.889 230.094C188.415 230.411 189.044 230.511 189.642 230.371C190.24 230.232 190.759 229.864 191.09 229.347C189.007 226.842 186.701 224.196 183.535 223.426C182.449 223.204 181.343 223.1 180.234 223.114C178.769 223.085 177.257 223.061 175.904 223.62C174.062 224.378 172.768 226.125 172.103 228.006C171.522 229.914 171.211 231.893 171.179 233.886C171.059 235.217 171.059 236.555 171.179 237.885C171.407 239.701 172.082 241.433 173.145 242.924C173.288 243.156 173.491 243.345 173.733 243.471C176.416 244.647 173.756 238.079 173.974 237.591Z" fill="#3F3D56"/>
<path d="M190.784 227.894C190.46 225.125 188.483 222.837 186.383 220.997C184.69 219.401 182.673 218.188 180.469 217.439C178.251 216.787 175.698 216.928 173.797 218.251C172.267 219.315 171.297 221.009 170.549 222.714C169.568 224.726 169.082 226.944 169.131 229.182C169.278 231.405 170.361 233.657 172.291 234.78C172.985 233.757 174.191 233.228 175.351 232.81C180.402 230.895 185.554 229.254 190.784 227.894Z" fill="#FED253"/>
<path opacity="0.1" d="M172.939 226.742C173.127 226.742 173.25 226.936 173.345 227.095C173.824 227.841 174.235 228.628 174.574 229.447C173.886 229.594 172.703 229.759 172.362 229.153C172.18 228.847 172.397 226.713 172.939 226.742Z" fill="black"/>
<path opacity="0.1" d="M186.348 225.413C186.207 225.548 186.042 225.272 186.042 225.072V222.791C186.038 222.727 186.052 222.664 186.083 222.608C186.107 222.58 186.137 222.558 186.17 222.542C186.204 222.525 186.24 222.516 186.277 222.514C186.754 222.461 187.148 222.867 187.454 223.255C187.918 223.884 188.322 224.555 188.66 225.26L186.171 225.184" fill="black"/>
<path d="M217.408 263.193C217.949 262.68 218.527 262.206 219.137 261.776C220.767 260.688 222.738 260.259 224.568 259.565C226.398 258.871 228.257 257.748 228.969 255.925C229.326 254.785 229.442 253.584 229.31 252.397C229.328 251.9 229.239 251.405 229.052 250.945C228.828 250.538 228.509 250.191 228.122 249.933C225.639 248.099 222.309 247.952 219.226 248.14C212.429 248.561 205.766 250.223 199.568 253.044C199.24 253.152 198.953 253.357 198.744 253.632C198.624 253.887 198.569 254.168 198.586 254.449C198.476 256.183 198.702 257.922 199.25 259.571C200.062 261.664 201.733 263.352 202.434 265.486C202.751 266.445 202.857 267.462 203.134 268.427C203.361 269.422 203.95 270.299 204.787 270.884C207.111 272.272 209.306 270.408 210.918 268.962L217.408 263.193Z" fill="#3F3D56"/>
<path d="M186.971 271.337L183.988 264.834C183.551 263.932 183.173 263.003 182.858 262.052C182.517 260.917 182.352 259.741 182.034 258.601C180.987 254.802 178.345 251.638 177.057 247.916C176.975 247.58 176.809 247.271 176.574 247.017C176.386 246.884 176.171 246.794 175.945 246.753C175.718 246.712 175.485 246.722 175.262 246.781C173.462 247.093 172.056 248.463 170.408 249.239C169.643 249.592 168.82 249.827 168.055 250.233C167.672 250.414 167.334 250.675 167.061 250.999C166.789 251.323 166.59 251.701 166.478 252.109C166.295 253.009 166.743 253.873 167.119 254.749C168.72 258.359 169.084 262.393 169.155 266.345C169.208 269.003 169.073 271.854 167.502 273.989C164.483 278.105 166.413 284.15 167.543 289.13C167.678 289.718 167.837 290.353 167.931 290.977C168.031 291.757 168.076 292.543 168.066 293.329C168.066 295.969 167.919 298.692 166.813 301.085C167.905 301.665 169.109 302.006 170.343 302.084C173.76 302.519 177.19 302.825 180.634 303.002C181.713 303.103 182.801 303.048 183.864 302.837C185.127 302.496 186.24 301.744 187.027 300.701C187.814 299.657 188.232 298.381 188.212 297.074C188.401 298.703 188.748 300.473 189.93 301.602C191.113 302.731 192.837 302.902 194.443 302.99C198.977 303.23 203.522 303.102 208.035 302.608C208.323 302.595 208.606 302.529 208.87 302.414C209.741 301.978 209.788 300.779 209.718 299.815C209.588 298.009 209.453 296.204 209.235 294.411C209.05 293.267 208.956 292.111 208.953 290.953C209.042 289.762 209.239 288.581 209.541 287.425C210.329 283.756 210.953 280.01 210.688 276.253C210.584 275.337 210.546 274.416 210.577 273.495C210.73 271.419 211.824 269.444 211.618 267.38C211.03 261.311 210.553 255.084 208.859 249.228C208.553 248.181 208.164 247.058 207.252 246.458C206.076 245.67 204.422 246.082 203.075 245.582C202.443 245.288 201.841 244.931 201.28 244.518C200.061 243.756 198.663 243.326 197.226 243.271C196.144 243.23 194.938 243.471 194.284 244.341C193.982 244.831 193.782 245.377 193.696 245.946C192.843 249.533 191.843 253.079 190.842 256.625L189.883 260.024L187.312 269.15C187.059 270.12 187.23 270.42 186.971 271.337Z" fill="#00B7FF"/>
<path d="M202.016 235.733L258.93 295.505V300.573H233.553L190.784 244.788" fill="#F1C0C0"/>
<path opacity="0.1" d="M202.016 235.733L258.93 295.505V300.573H233.553L190.784 244.788" fill="black"/>
<path opacity="0.1" d="M191.69 244L191.873 244.065L233.918 295.505H258.93V300.573H233.553L190.784 244.788L191.69 244Z" fill="black"/>
<path d="M198.239 245.259C196.18 246.158 193.891 247.311 193.273 249.475C193.151 249.854 193.125 250.258 193.197 250.651C193.347 251.112 193.634 251.517 194.02 251.812C194.405 252.107 194.871 252.278 195.356 252.303C196.325 252.327 197.288 252.15 198.186 251.786L210.336 247.775C210.666 247.669 211.042 247.511 211.125 247.187C211.146 246.984 211.105 246.779 211.007 246.599C210.63 245.682 210.26 243.806 209.471 243.165C208.824 242.648 207.541 242.83 206.759 242.842C203.746 242.865 200.916 244.083 198.239 245.259Z" fill="#00B7FF"/>
<path d="M209.07 248.252C211.117 248.246 213.152 248.561 215.101 249.187C217.059 249.822 218.793 251.006 220.096 252.597C220.476 253.042 220.746 253.57 220.885 254.138C221.003 254.726 222.921 255.079 222.497 255.479C223.786 255.273 223.48 255.878 224.786 255.867C226.092 255.855 227.504 255.52 228.287 254.479C228.83 253.624 229.073 252.612 228.975 251.604C228.992 250.906 228.86 250.212 228.587 249.569C227.998 248.334 226.645 247.67 225.398 247.099L214.889 242.295C214.28 241.971 213.625 241.739 212.948 241.607C212.377 241.554 211.803 241.567 211.236 241.649L206.476 242.195C207.517 242.869 208.364 243.801 208.935 244.901C209.505 246.002 209.779 247.231 209.729 248.469" fill="#3F3D56"/>
</g>
<defs>
<clipPath id="clip0_1_131">
<rect width="693" height="426" fill="white" transform="translate(0.597656 0.379395)"/>
</clipPath>
</defs>
</svg>
