<svg width="350" height="634" viewBox="0 0 350 634" fill="none" xmlns="http://www.w3.org/2000/svg">
<path fill-rule="evenodd" clip-rule="evenodd" d="M518.846 432.996C481.717 487.413 396.683 457.077 331.019 462.358C267.556 467.462 200.033 498.534 147.286 462.879C92.1654 425.619 65.8456 352.975 71.0801 286.649C75.7394 227.611 131.169 191.604 172.075 148.78C208.046 111.123 239.006 62.0959 290.796 56.6323C342.766 51.1498 389.983 84.7702 426.742 121.915C459.569 155.085 465.211 201.515 478.459 246.262C497.254 309.742 556.158 378.309 518.846 432.996Z" fill="#EEFAFF"/>
<g clip-path="url(#clip0_38_226)">
<path d="M302.483 268.422H273.869V259.769C282.911 253.5 290.922 254.045 301.461 260.278L302.483 268.422Z" fill="#00B7FF"/>
<path d="M267.243 422.119L260.979 422.118L260.042 398.048L267.244 398.049L267.243 422.119Z" fill="#FFB8B8"/>
<path d="M268.841 428.167L248.643 428.167V427.912C248.643 426.884 248.846 425.865 249.241 424.915C249.636 423.965 250.215 423.102 250.945 422.374C251.675 421.647 252.542 421.07 253.496 420.677C254.45 420.283 255.472 420.081 256.504 420.081H256.505L268.841 420.081L268.841 428.167Z" fill="#272A3D"/>
<path d="M302.526 422.119L308.791 422.118L309.727 398.048L302.525 398.049L302.526 422.119Z" fill="#FFB8B8"/>
<path d="M300.929 420.081L313.265 420.081H313.266C314.298 420.081 315.32 420.283 316.274 420.677C317.228 421.07 318.095 421.647 318.825 422.374C319.555 423.102 320.134 423.965 320.529 424.915C320.924 425.865 321.127 426.884 321.127 427.912V428.167L300.929 428.168L300.929 420.081Z" fill="#272A3D"/>
<path d="M302.691 419.034C302.169 419.032 301.662 418.854 301.254 418.528C300.846 418.202 300.562 417.748 300.446 417.241L284.92 349.778C284.886 349.606 284.792 349.452 284.655 349.343C284.518 349.234 284.347 349.176 284.172 349.18H284.168C283.992 349.177 283.82 349.236 283.684 349.347C283.547 349.457 283.455 349.613 283.422 349.785L269.164 416.793C269.053 417.306 268.769 417.765 268.36 418.095C267.951 418.425 267.441 418.607 266.915 418.609H260.123C259.809 418.609 259.499 418.545 259.211 418.421C258.924 418.297 258.664 418.116 258.449 417.889C258.234 417.662 258.068 417.393 257.961 417.1C257.854 416.807 257.809 416.494 257.827 416.183L262.886 331.253L264.922 330.653L264.96 330.653L304.946 331.002L313.463 415.838C313.493 416.141 313.462 416.446 313.372 416.737C313.282 417.027 313.134 417.297 312.938 417.53C312.743 417.764 312.502 417.956 312.231 418.095C311.96 418.235 311.664 418.319 311.36 418.344L302.876 419.026C302.814 419.031 302.752 419.034 302.691 419.034Z" fill="#272A3D"/>
<path d="M286.179 252.913C293.109 252.913 298.728 247.316 298.728 240.412C298.728 233.507 293.109 227.91 286.179 227.91C279.248 227.91 273.629 233.507 273.629 240.412C273.629 247.316 279.248 252.913 286.179 252.913Z" fill="#FFB8B8"/>
<path d="M278.491 340.565C276.289 340.592 274.096 340.284 271.988 339.653C270.112 339.09 268.372 338.15 266.875 336.891C265.378 335.633 264.155 334.083 263.282 332.336C263.005 331.811 262.944 331.198 263.111 330.629C264.495 325.923 271.183 301.462 266.916 282.017C266.313 279.316 266.263 276.522 266.769 273.801C267.274 271.08 268.324 268.488 269.856 266.18C271.353 263.89 273.297 261.924 275.574 260.399C277.85 258.874 280.411 257.821 283.104 257.304L283.104 257.303C283.812 257.166 284.523 257.053 285.219 256.967C288.196 256.602 291.218 256.897 294.067 257.831C296.916 258.765 299.523 260.315 301.701 262.37C303.944 264.465 305.694 267.028 306.826 269.875C307.958 272.723 308.444 275.784 308.25 278.841L304.97 331.27C304.947 331.663 304.822 332.044 304.607 332.374C304.393 332.705 304.095 332.974 303.744 333.155C299.967 335.127 288.62 340.565 278.491 340.565Z" fill="#3F3D56"/>
<path d="M300.355 231.209C299.052 227.945 296.664 225.226 293.59 223.504C290.517 221.783 286.944 221.164 283.467 221.75L287.424 224.935C282.508 225.1 277.333 224.75 273.823 228.182C274.94 228.151 276.405 230.533 277.522 230.502C275.433 230.543 273.538 232.005 272.616 233.873C271.761 235.792 271.561 237.937 272.046 239.98C272.459 242.02 275.607 246.801 276.454 248.704C276.308 243.731 286.136 231.869 290.935 233.107C288.497 234.008 286.381 235.608 284.855 237.706C288.12 236.064 291.812 235.463 295.432 235.982C296.259 236.171 297.111 236.218 297.954 236.122C298.47 236.021 298.952 235.789 299.352 235.449C299.753 235.109 300.06 234.672 300.243 234.181C300.426 233.689 300.479 233.159 300.398 232.641C300.317 232.123 300.104 231.634 299.779 231.221L300.355 231.209Z" fill="#2F2E41"/>
<path d="M277.626 337.416C277.309 337.416 276.996 337.35 276.706 337.223L252.895 326.869C252.389 326.653 251.978 326.263 251.739 325.769C251.499 325.276 251.446 324.713 251.59 324.183L267.353 264.865C267.646 263.761 268.157 262.726 268.857 261.822C269.556 260.917 270.429 260.161 271.426 259.597C272.422 259.032 273.521 258.672 274.659 258.536C275.797 258.4 276.951 258.492 278.053 258.806L284.356 260.598L279.919 335.259C279.896 335.627 279.784 335.985 279.593 336.301C279.403 336.617 279.138 336.883 278.822 337.076C278.463 337.297 278.049 337.415 277.626 337.416Z" fill="#00B7FF"/>
<path d="M321.694 324.183L320.647 320.248L319.129 314.527L318.398 311.784L316.881 306.078L305.931 264.864C305.639 263.759 305.129 262.724 304.429 261.819C303.73 260.914 302.857 260.158 301.86 259.593C300.864 259.029 299.764 258.669 298.626 258.534C297.487 258.399 296.334 258.491 295.232 258.807L288.932 260.598L292.054 313.112L292.376 318.594L292.58 322.05V322.055L292.907 327.507L293.367 335.259C293.404 335.841 293.662 336.387 294.088 336.788C294.513 337.188 295.075 337.413 295.661 337.417C295.977 337.415 296.29 337.349 296.581 337.224L320.391 326.871C320.897 326.655 321.308 326.264 321.547 325.77C321.787 325.276 321.839 324.712 321.694 324.183Z" fill="#00B7FF"/>
<path d="M318.399 311.784L292.376 318.594L292.054 313.112L316.882 306.078L318.399 311.784Z" fill="#CCCCCC"/>
<path d="M320.647 320.249L292.908 327.507L292.581 322.056V322.05L319.13 314.527L320.647 320.249Z" fill="#CCCCCC"/>
<path d="M280.911 314.293L280.588 319.673L255.066 312.099L256.563 306.47L280.911 314.293Z" fill="#CCCCCC"/>
<path d="M280.378 323.216L254.335 314.843L252.838 320.488L280.062 328.565L280.378 323.216Z" fill="#CCCCCC"/>
<path d="M254.789 328.843C255.565 328.641 256.288 328.272 256.906 327.761C257.523 327.251 258.021 326.612 258.365 325.89C258.708 325.167 258.888 324.378 258.892 323.579C258.896 322.78 258.724 321.989 258.388 321.263L270.631 282.973L261.949 281.162L250.724 318.702C249.537 319.345 248.628 320.399 248.17 321.665C247.711 322.931 247.734 324.321 248.235 325.571C248.736 326.821 249.68 327.844 250.888 328.447C252.096 329.05 253.484 329.191 254.789 328.843Z" fill="#FFB8B8"/>
<path d="M270.972 264.149C273.465 264.402 274.867 267.195 274.247 270.671L271.273 287.356C271.05 288.606 270.016 289.597 269.158 289.383L259.097 286.877C258.322 286.685 258.037 285.589 258.476 284.493L264.516 269.399C265.828 266.121 268.555 263.903 270.972 264.149Z" fill="#3F3D56"/>
<path d="M286.132 217.012C290.379 217.013 294.46 218.66 297.509 221.605C300.559 224.55 302.338 228.562 302.469 232.791H305.548C305.819 232.791 306.079 232.899 306.271 233.09C306.462 233.28 306.57 233.539 306.57 233.809V237.881C306.57 238.151 306.462 238.41 306.271 238.601C306.079 238.792 305.819 238.899 305.548 238.899H270.803C270.532 238.899 270.272 238.792 270.081 238.601C269.889 238.41 269.781 238.151 269.781 237.881V233.3C269.781 231.161 270.204 229.043 271.026 227.067C271.848 225.091 273.052 223.295 274.57 221.783C276.089 220.27 277.891 219.071 279.875 218.252C281.859 217.433 283.985 217.012 286.132 217.012Z" fill="#00B7FF"/>
<path d="M288.085 317.695H280.863C280.631 317.696 280.407 317.611 280.236 317.456C280.064 317.3 279.957 317.087 279.935 316.857L278.489 302.095H290.459L289.013 316.857C288.992 317.087 288.884 317.3 288.713 317.456C288.541 317.611 288.317 317.696 288.085 317.695Z" fill="#FED253"/>
<path d="M290.44 303.952H278.508C278.261 303.952 278.024 303.854 277.85 303.68C277.675 303.506 277.576 303.27 277.576 303.024V300.795C277.576 300.549 277.675 300.313 277.85 300.139C278.024 299.965 278.261 299.867 278.508 299.867H290.44C290.687 299.867 290.924 299.965 291.099 300.139C291.273 300.313 291.372 300.549 291.372 300.795V303.024C291.372 303.27 291.273 303.506 291.099 303.68C290.924 303.854 290.687 303.952 290.44 303.952Z" fill="#CCCCCC"/>
<path d="M284.63 309.779C284.911 309.811 285.188 309.866 285.461 309.941L304.696 293.509L303.572 287.479L312.484 284.6L315.516 295.081C315.761 295.927 315.724 296.83 315.41 297.654C315.095 298.478 314.522 299.178 313.774 299.649L289.413 315.006C289.43 316.091 289.116 317.155 288.511 318.058C287.906 318.96 287.04 319.658 286.027 320.057C285.015 320.457 283.904 320.541 282.843 320.297C281.782 320.052 280.82 319.492 280.086 318.69C279.353 317.888 278.881 316.883 278.735 315.808C278.589 314.733 278.775 313.639 279.268 312.671C279.761 311.704 280.538 310.909 281.496 310.392C282.454 309.876 283.547 309.662 284.63 309.779V309.779Z" fill="#FFB8B8"/>
<path d="M304.746 265.527C307.409 264.785 310.069 266.804 310.961 270.244L315.239 286.751C315.56 287.988 314.937 289.303 313.964 289.442L302.567 291.076C301.69 291.201 300.917 290.305 300.885 289.125L300.442 272.881C300.346 269.354 302.164 266.247 304.746 265.527Z" fill="#3F3D56"/>
<path d="M178.685 391.629C175.451 392.762 171.979 393.045 168.603 392.453C165.227 391.861 162.062 390.412 159.411 388.247C152.66 382.603 150.544 373.303 148.821 364.693L143.728 339.225L154.392 346.54C162.061 351.8 169.903 357.229 175.214 364.849C180.524 372.469 182.842 382.87 178.575 391.115" fill="#FED253"/>
<path d="M177.773 422.464C178.853 414.631 179.963 406.699 179.205 398.782C178.533 391.752 176.38 384.885 171.996 379.255C169.67 376.272 166.839 373.716 163.63 371.702C162.794 371.176 162.023 372.497 162.856 373.021C168.408 376.516 172.702 381.677 175.119 387.76C177.789 394.524 178.217 401.898 177.757 409.084C177.479 413.429 176.889 417.746 176.295 422.058C176.248 422.253 176.278 422.458 176.377 422.633C176.476 422.807 176.638 422.937 176.83 422.997C177.026 423.05 177.235 423.023 177.412 422.923C177.588 422.823 177.718 422.658 177.773 422.464Z" fill="#F2F2F2"/>
<path d="M167.377 408.604C165.99 410.704 164.084 412.413 161.841 413.566C159.599 414.718 157.097 415.277 154.575 415.186C148.095 414.88 142.692 410.374 137.828 406.097L123.443 393.444L132.964 392.99C139.811 392.664 146.834 392.359 153.355 394.463C159.876 396.566 165.89 401.628 167.083 408.352" fill="#FED253"/>
<path d="M180.824 426.966C175.629 417.809 169.603 407.631 158.835 404.378C155.841 403.477 152.702 403.154 149.586 403.427C148.604 403.511 148.85 405.019 149.83 404.935C155.052 404.503 160.265 405.877 164.589 408.825C168.751 411.647 171.991 415.57 174.734 419.73C176.414 422.279 177.919 424.935 179.424 427.588C179.905 428.436 181.311 427.824 180.824 426.966Z" fill="#F2F2F2"/>
<path d="M502.933 429.012H139.132C138.997 429.012 138.867 428.959 138.771 428.863C138.675 428.768 138.621 428.638 138.621 428.503C138.621 428.368 138.675 428.239 138.771 428.143C138.867 428.048 138.997 427.994 139.132 427.994H502.933C503.068 427.994 503.198 428.048 503.294 428.143C503.39 428.239 503.444 428.368 503.444 428.503C503.444 428.638 503.39 428.768 503.294 428.863C503.198 428.959 503.068 429.012 502.933 429.012Z" fill="#CCCCCC"/>
</g>
<defs>
<clipPath id="clip0_38_226">
<rect width="380" height="212" fill="white" transform="translate(123.443 217.012)"/>
</clipPath>
</defs>
</svg>
